<?xml version="1.0" encoding="UTF-8"?>
<svg xmlns="http://www.w3.org/2000/svg" id="a" width="865.76" height="682.89" viewBox="0 0 865.76 682.89">
  <path d="M101.25,581.07l-2.11-1.15s-3.62,5.36-4.37,20.43l-1.07,15.07s-1.68,15.82,10.31,19.93c3.02,1.04,6.37,.85,9.11-.79,2.69-1.61,5.39-4.82,5.39-11.23l-12.45-14.02-4.81-16.23s-4.82-4.54,0-12.01Z" fill="#fff" stroke="#002346" stroke-miterlimit="10"></path>
  <path d="M101.25,581.07s-2.72,2.7-3.09,11.74l-1.13,20.2s-1.66,18.03,11.8,18.89c0,0,9.31,.76,9.68-9.74v-37.88s-9.26,1.25-17.26-3.21Z" fill="#002aff" stroke="#002346" stroke-miterlimit="10"></path>
  <g>
    <rect x="585.72" y="39.29" width="207.33" height="311" fill="none" stroke="#002346" stroke-miterlimit="10"></rect>
    <rect x="598.83" y="52.4" width="181.1" height="284.77" fill="none" stroke="#002346" stroke-miterlimit="10"></rect>
    <g>
      <rect x="605.08" y="152.54" width="79.94" height="85.12" fill="none" stroke="#002346" stroke-miterlimit="10"></rect>
      <rect x="693.76" y="152.54" width="79.94" height="85.12" fill="none" stroke="#002346" stroke-miterlimit="10"></rect>
    </g>
    <g>
      <rect x="605.08" y="244.56" width="79.94" height="85.12" fill="none" stroke="#002346" stroke-miterlimit="10"></rect>
      <rect x="693.76" y="244.56" width="79.94" height="85.12" fill="none" stroke="#002346" stroke-miterlimit="10"></rect>
    </g>
    <g>
      <rect x="605.08" y="60.52" width="79.94" height="85.12" fill="none" stroke="#002346" stroke-miterlimit="10"></rect>
      <rect x="693.76" y="60.52" width="79.94" height="85.12" fill="none" stroke="#002346" stroke-miterlimit="10"></rect>
    </g>
  </g>
  <rect x="289.03" y="619.96" width="14" height="10" fill="#e6e7e8" stroke="#002346" stroke-miterlimit="10"></rect>
  <path d="M137.35,634.64v4.43c0,.92,.75,1.67,1.67,1.67h55.45c.92,0,1.67-.75,1.67-1.67v-1.79l-58.79-2.64Z" fill="#fff" stroke="#002346" stroke-miterlimit="10"></path>
  <path d="M111.54,397.42s-3.96,12.07-1.7,45.32l1.48,42.88c.02,.7-.05,1.39-.22,2.07-1.22,4.85-6.52,26.63-9.17,50.86l-4.66,38c-.15,1.25,.43,2.47,1.49,3.14,3.24,2.02,10.8,5.76,20.73,4.48,1.41-.18,2.56-1.24,2.8-2.65l26.77-150.46c.11-.63,1.03-.56,1.05,.08l1.91,59.4c.04,1.09-.17,2.18-.6,3.18-1.9,4.42-7.39,19.25-9.56,47.09l-6.25,53.27c-.1,.84,.32,1.66,1.06,2.07,3.91,2.18,16.38,8.58,25.22,6.83,.86-.17,1.52-.86,1.66-1.73l20.51-128.28s6.2-50.58,4.98-78.61c0,0-31.74-5.8-32.49-5.8s-18.47,4.52-18.47,4.52l-26.57,4.33Z" fill="#ffc800" stroke="#002346" stroke-miterlimit="10"></path>
  <path d="M113.2,379.29l-3.15,17.88c-.15,.83,.1,1.68,.67,2.31,2.61,2.85,11.8,9.94,37.19,7.33,.93-.1,1.75-.66,2.17-1.49l2.42-4.84c.26-.52,1.02-.48,1.22,.07l1.75,4.71c.46,1.24,1.75,1.98,3.06,1.73,5.99-1.13,22.34-4.82,30.49-12.57,.67-.63,.98-1.55,.82-2.46l-1.7-9.81-9.32-12.44s-34.29-2.64-33.54-2.64-32.06,12.21-32.06,12.21Z" fill="#e6e7e8" stroke="#002346" stroke-miterlimit="10"></path>
  <path d="M122.13,349.46l-9.1,30.5s23.57,4.83,39.02-6.09c0,0,4.9,7.54,24.12,8.29h11.96l-7.69-35.96c-.04-.17,.17-.29,.29-.16,2.49,2.55,15.59,15.31,26.43,12.7,3.01-.72,5.39-3.11,6.25-6.09,1.16-4.04,1.65-11.4-2.19-23.95l-12.44-33.59s-3.39-9.04-11.68-12.44l-18.09-9.04-7.16,18.47-29.02-20.73-11.28,7.34c-5.86,3.81-10.18,9.57-12.21,16.26l-13.06,43.1s-3.36,11.59,2.56,18.04c1.38,1.5,3.31,2.39,5.35,2.45,3.57,.11,10.03-1.15,17.75-9.2,.08-.09,.23,0,.19,.1Z" fill="#002aff" stroke="#002346" stroke-miterlimit="10"></path>
  <path d="M349.9,639.96h38.66c1.43,0,2.59-1.16,2.59-2.59v-.84l-12.06-3.96h-26l-19.22-3.01-6.81-1.51-3.36,2.64c-.26,.53-.16,4.82-.07,7.38,.04,1.06,.91,1.9,1.97,1.9h24.31Z" fill="#e6e7e8" stroke="#002346" stroke-miterlimit="10"></path>
  <path d="M306.74,631.06v6.93c0,1.09-.88,1.97-1.97,1.97h-47.05v-2.15h30.75c.98,0,1.94-.28,2.77-.8l7.42-4.66c1.34-.84,2.88-1.29,4.47-1.29h3.61Z" fill="#e6e7e8" stroke="#002346" stroke-miterlimit="10"></path>
  <path d="M275.87,398.24l-6.81,75.67,3.41,150.01,35.71,2.4-4.2-126.78,13.32-55.77s7.91,56.53,6.03,91.95l-.94,90.61,39.76-9.96-3.77-9.42,6.28-213.64-10.86-19.68-12.75-3.19-55.02,15.68-10.15,12.13Z" fill="#002346" stroke="#002346" stroke-miterlimit="10"></path>
  <path d="M315.03,273.44s9.73,6.67,22.39,1.64c0,0,.56,21.72,3.78,42.45l9.32,59.28s-14.23,2.53-34.28,.64c0,0,10.2-55.11,2.8-86.34l-4.01-17.66Z" fill="#e6e7e8" stroke="#002346" stroke-miterlimit="10"></path>
  <polygon points="431.45 615.75 430.72 623.52 435.81 628.05 444.22 627.48 450.6 620.73 431.45 615.75" fill="#f1b2c0" stroke="#002346" stroke-miterlimit="10"></polygon>
  <path d="M481.6,635.21v3.39c0,1.02,.78,1.87,1.8,1.95,4.89,.38,18.86,1.1,31.36-1.95,0,0,5.16,.49,8.73-.31,1.29-.29,2.16-1.49,2.08-2.8l-.34-5.72s-9.69-.55-10.27,0-33.37,5.45-33.37,5.45Z" fill="#fff" stroke="#002346" stroke-miterlimit="10"></path>
  <polygon points="503.44 617.38 503.44 623.99 511.84 629.52 517.4 631.82 523.71 621.26 503.44 617.38" fill="#f1b2c0" stroke="#002346" stroke-miterlimit="10"></polygon>
  <path d="M466.52,384.61c43.17,0,59.92-7.16,59.92-7.16l3.77,24.12-4.98,220.08-30.82-6.03-5.65-172.22-34.67,178.25-27.51-7.16,20.73-136.04,14.05-94.94s2.54,1.1,5.17,1.1Z" fill="#002346" stroke="#002346" stroke-miterlimit="10"></path>
  <path d="M369.15,401.89l-1.36-51.2c6.84,10.7,14.85,14.9,19.46,14.39,3.25-.36,6.16-2.17,8.04-4.84l31.28-44.23-10.55-26.76-29.02,35.68-21.13-37.37c-1.48-2.61-3.46-4.9-5.84-6.73l-22.65-17.48c-.05-.04-.13,0-.13,.06-.03,2.43-.27,33.55,5.59,63.56l9.66,62.7c.15,.99,.49,1.94,1.01,2.8,1.53,2.52,5.34,7.74,12.38,11.44,1.5,.79,3.29-.35,3.25-2.04Z" fill="#ffc800" stroke="#002346" stroke-miterlimit="10"></path>
  <path d="M580.72,642.37l22.78,1.24s-14.12-5.38-22.78-1.24c0,0,0,0,0,0Z" fill="#002346" stroke="#002346" stroke-miterlimit="10"></path>
  <path d="M701.08,642.2l-23.08-.14v-4.46h21.13l2.07,4.41c.04,.08-.02,.18-.12,.18Z" fill="#002346" stroke="#002346" stroke-miterlimit="10"></path>
  <path d="M626.3,628.51v12.67c0,1.33-1.08,2.41-2.41,2.41h-20.38c-15.67-5.27-22.5-1.41-22.79-1.24,0,0,0,0,0,0v-6.77c5.65-3.01,14.7-.38,14.7-.38,2.98,.53,5.48,.77,7.29,.89,1.88,.12,3.75-.35,5.33-1.37,8.61-5.58,18.28-6.21,18.28-6.21Z" fill="#fff" stroke="#002346" stroke-miterlimit="10"></path>
  <path d="M670.02,626.92v11.76h0c1.66,2.73,4.87,4.09,7.98,3.39,.83-.19,1.74-.45,2.72-.82s1.99-.62,3.02-.77c4.05-.62,13.4-1.59,17.5,1.7,.02,.01,.04,0,.04-.02l-.36-8.83-13.19-8.67h-12l-5.71,2.26Z" fill="#fff" stroke="#002346" stroke-miterlimit="10"></path>
  <path d="M641.38,378.91s-24.12,84.08-30.52,124.02c0,0-2.26,10.93-2.26,29.39v58.63s9.8,.16,17.71,3.93l7.91-34.29s3.6-23.43,1.3-48.78c-.1-1.13,.06-2.27,.48-3.32l31.39-77.91s4.51,41.27,3.4,68.64c-.12,3.08-.46,6.14-1.03,9.16-.7,3.68-1.62,10.89-.87,20.94l2.07,66.77s8.32-5.96,18.57,0l17.48-174.11c.5-5.03,.77-10.07,.8-15.13,.05-9.67-.12-25.3-1.62-32.8l-2.64-5.87s-9.33-2.62-10.13-2.33-45.27,10.47-45.27,10.47l-6.78,2.6Z" fill="#002aff" stroke="#002346" stroke-miterlimit="10"></path>
  <path d="M475.94,255.46s-3.01,5.54,1.89,10.44l-19.99,16.13c-.99,.8-1.84,1.74-2.54,2.8l-22.04,33.65c-3.05,4.66-7.97,7.77-13.48,8.53l-39.58,5.44c-.51,.07-.77,.63-.51,1.07,1.62,2.7,6.09,11.47,7.32,27.72l50.37-7.75c2.28-.35,4.38-1.44,5.98-3.1l15.25-16.66s.38,7.54-3.01,26.38c0,0-2.08,7.28-1.2,13.98,.8,6.06,6.02,10.55,12.13,10.58,10.15,.04,36.93-.48,57.28-6.46l-1.51,18.09s-1.39,6.66-.11,9.51c.29,.64,.94,1.05,1.64,1.05h23.69s11.71-52,11.71-52c0,0,1.78-10.44-1.37-23.68l-7.29-37.74s-2.64-20.35-16.96-27.89l-14.7-8.29s-1.86-.93-.52-3.63c.52-1.04,.9-2.15,1.01-3.31,.4-4.18-1.17-11.61-20.27-3.9l-23.18,9.07Z" fill="#002aff" stroke="#002346" stroke-miterlimit="10"></path>
  <path d="M487.25,282.48s-1.88-9.8-9.42-15.83" fill="none" stroke="#002346" stroke-linecap="round" stroke-linejoin="round"></path>
  <path d="M485.36,264.01l5.67,18.67c.3,.99,1.63,1.18,2.18,.31,2.7-4.24,8.35-14.47,9.49-27.27,0,0-4.9,9.8-17.33,8.29Z" fill="#fff" stroke="#002346" stroke-miterlimit="10"></path>
  <path d="M501.57,275.7l2.21-7.9c1.52-5.45,4.36-10.44,8.27-14.53l2.33-2.44" fill="none" stroke="#002346" stroke-linecap="round" stroke-linejoin="round"></path>
  <path d="M518.9,257.99s-3.99-.16-8.78-2.53" fill="none" stroke="#002346" stroke-linecap="round" stroke-linejoin="round"></path>
  <path d="M537.8,269.09s-9.09,6.99-10.98,21.31" fill="none" stroke="#002346" stroke-linecap="round" stroke-linejoin="round"></path>
  <line x1="522.67" y1="294.54" x2="528.33" y2="329.59" fill="none" stroke="#002346" stroke-linecap="round" stroke-linejoin="round"></line>
  <line x1="529.08" y1="322.72" x2="523.8" y2="378.2" fill="none" stroke="#002346" stroke-linecap="round" stroke-linejoin="round"></line>
  <line x1="458.23" y1="303.96" x2="458.61" y2="333.73" fill="none" stroke="#002346" stroke-linecap="round" stroke-linejoin="round"></line>
  <path d="M455.3,284.84s-.08,5.56,3.12,12.53" fill="none" stroke="#002346" stroke-linecap="round" stroke-linejoin="round"></path>
  <path d="M523.23,404.92c-.21,1.45-.11,3.61,1.32,6.07,0,0,1.51,3.16,0,5.91,0,0-2.64,2.88-.75,5.08,0,0-1.88,1.49,0,3.92,0,0,1.51,1.83,6.41-1.45,0,0,1.13,2.37,4.9,1.24,0,0,3.77,1.51,7.54-2.26l4.37-4.52s1.79-1.88,1.16-6.97l-.8-5.23c-.15-.97-.59-1.86-1.28-2.56-2.24-2.29-7.76-6.94-14.38-5.22,0,0-3.53,.43-6.69,2.94-.96,.76-1.62,1.84-1.79,3.05Z" fill="#f1b2c0" stroke="#002346" stroke-miterlimit="10"></path>
  <path d="M523.8,421.97s5.65-.24,5.28-7.69c0,0-1.13-5.32,0-8.27" fill="none" stroke="#002346" stroke-linecap="round" stroke-linejoin="round"></path>
  <path d="M530.21,424.44s.83-.4,1.86-1.14c2.16-1.54,3.52-3.96,3.79-6.59l.42-4.23" fill="none" stroke="#002346" stroke-linecap="round" stroke-linejoin="round"></path>
  <path d="M535.11,425.68s4.52-1.51,6.03-9.04" fill="none" stroke="#002346" stroke-linecap="round" stroke-linejoin="round"></path>
  <path d="M481.68,635.14c.62-.53,4.56-3.93,8.44-7.81,1.68-1.68,3.22-3.5,4.7-5.36,1.6-2.01,5.76-5.41,13.29-.32l4.93,3.92c1.16,.92,2.76,1.01,4.02,.23l6.66-4.15,1.52,8.12c.26,1.36-.7,2.66-2.08,2.81-1.79,.19-4.62,.38-8.77,.38,0,0-11.64,4.88-32.68,2.27-.04,0-.06-.06-.03-.08Z" fill="#002aff" stroke="#002346" stroke-miterlimit="10"></path>
  <path d="M453.71,631.06s2.26,6.41-4.52,6.78h-8.49c-.35,0-.69,.06-1.03,.16-1.31,.4-6.26,1.43-22.88,1.73,0,0-19.56,2.06-16.75-6.13l32.89-2.54,15.14-3.01,5.65,3.01Z" fill="#fff" stroke="#002346" stroke-miterlimit="10"></path>
  <path d="M499.12,246.4h10.55c.48,0,.71,.59,.34,.91-1.87,1.6-5.64,5.09-7.31,8.42l-3.58-9.33Z" fill="#002aff" stroke="#002346" stroke-miterlimit="10"></path>
  <path d="M360.63,331.09c10.73,9.2,18.52,18.14,21.7,22.26,.95,1.23,.73,2.98-.48,3.94h0c-1.03,.81-2.48,.81-3.5,0l-2.63-2.08c-2.26,3.39-5.8,.42-5.8,.42-3.54,5.31-7.77,.34-7.77,.34-.38,4.15-5.54,2.71-5.54,2.71l-19.1-18.34c-.39-.38-.89-.63-1.43-.71l-6.92-1.11s.2-11.57,2.84-17.98l7.45,.83c2.21,.25,4.39,.74,6.48,1.5,3.79,1.37,9.76,3.99,14.71,8.23Z" fill="#f1b2c0" stroke="#002346" stroke-miterlimit="10"></path>
  <path d="M340.31,346.92s-3.73-.1-1.31-5.14c0,0,.33-1.35,1.27-2.34,1.39-1.47,3.9-.69,4.3,1.29,.11,.54,.16,1.19,.1,1.93,0,0,3.9-2.52,5.41,1.62,0,0,4.4-1.08,3.71,4.93,0,0,5.35,1.22,.63,7.38l2.17,2.09s-8.02,6.33-7.65-2.33c0,0-4.52,1.51-5.28-4.52,0,0-4.85,.75-3.36-4.9Z" fill="#f1b2c0" stroke="#002346" stroke-miterlimit="10"></path>
  <line x1="344.67" y1="342.66" x2="340.03" y2="346.96" fill="none" stroke="#002346" stroke-linecap="round" stroke-linejoin="round"></line>
  <line x1="350.08" y1="344.28" x2="344.03" y2="351.96" fill="none" stroke="#002346" stroke-linecap="round" stroke-linejoin="round"></line>
  <line x1="353.78" y1="349.21" x2="349.03" y2="355.96" fill="none" stroke="#002346" stroke-linecap="round" stroke-linejoin="round"></line>
  <path d="M382.71,356.13s.91,4.36,4.3,5.11c0,0-.45-5.28-.98-8.29h-3.92s1.2,1.46,.6,3.18Z" fill="#002aff" stroke="#002346" stroke-miterlimit="10"></path>
  <path d="M359.2,280.18s1.58,6.61,0,14.06" fill="none" stroke="#002346" stroke-linecap="round" stroke-linejoin="round"></path>
  <line x1="363.64" y1="317.53" x2="364.65" y2="326.26" fill="none" stroke="#002346" stroke-linecap="round" stroke-linejoin="round"></line>
  <line x1="387.01" y1="324.94" x2="381.92" y2="329.99" fill="none" stroke="#002346" stroke-linecap="round" stroke-linejoin="round"></line>
  <path d="M308.62,255.72l6.41,17.71s7.37,23.74,6.7,45.41l10.26,1.7s-4.31,10.93-1.96,26.38l-9.62-.75s-1.72,26.27-6.95,39.5c-1.61,4.08-5.19,7.06-9.5,7.9l-32.09,6.31c-1.31,.26-2.46-.92-2.15-2.23l11.54-49.54c.37-1.57-.21-3.2-1.48-4.2-3.99-3.13-12.26-11.08-12.4-23.37l-1.7-34.29s-.75-11.31,11.68-16.2l31.28-14.32Z" fill="#ffc800" stroke="#002346" stroke-miterlimit="10"></path>
  <path d="M292.04,288.89s-8.23-9.12-22.01-13.98" fill="none" stroke="#002346" stroke-linecap="round" stroke-linejoin="round"></path>
  <line x1="280.36" y1="305.84" x2="321.73" y2="318.85" fill="none" stroke="#002346" stroke-linecap="round" stroke-linejoin="round"></line>
  <line x1="290.16" y1="296.42" x2="298.82" y2="311.65" fill="none" stroke="#002346" stroke-linecap="round" stroke-linejoin="round"></line>
  <line x1="320.4" y1="346.17" x2="287.17" y2="346.17" fill="none" stroke="#002346" stroke-linecap="round" stroke-linejoin="round"></line>
  <path d="M334.67,339.41s-.8,6.76-4.65,7.52c0,0-.67-4.52-.67-8.29l5.32,.78Z" fill="#ffc800" stroke="#002346" stroke-miterlimit="10"></path>
  <path d="M416.03,289.26l7.43-12.69c1.07-1.82,1.78-3.83,2.09-5.92l.68-4.56c.19-1.28,1.38-2.17,2.66-2h0c1.24,.17,2.14,1.27,2.05,2.52l-.59,8.3s.01,.03,.03,.02l20.38-8.29c1.05-.43,2.26-.03,2.84,.95h0c.68,1.13,.27,2.6-.89,3.22l-9.92,5.27s11.09-4.27,15.73-3.9c1.02,.08,1.74,1.02,1.53,2.02-.16,.76-.54,1.65-1.44,2.33,0,0,1.88,2.57-4.9,5.58l-8.03,4.64c-.44,.25-.56,.83-.27,1.24h0c.23,.31,.64,.44,1,.3l8.94-3.46c1.14-.44,2.41,.2,2.74,1.38h0c.29,1.05-.28,2.14-1.3,2.51l-23.72,8.39c-2.22,.78-4.03,2.43-5.02,4.56l-3.86,8.3-8.16-20.68Z" fill="#f1b2c0" stroke="#002346" stroke-miterlimit="10"></path>
  <line x1="458.61" y1="276.52" x2="444.67" y2="280.97" fill="none" stroke="#002346" stroke-linecap="round" stroke-linejoin="round"></line>
  <path d="M430.38,274.93s1.37,1.94,.86,12.28" fill="none" stroke="#002346" stroke-linecap="round" stroke-linejoin="round"></path>
  <path d="M334.62,261.35c1.21,1.63,2.65,1.91,2.65,1.91l.16,11.81c-12.28,5.03-22.39-1.64-22.39-1.64l-6.41-17.71c5.65-4.9,5.04-13.18,5.04-13.18,3.53,.38,3.63-3.02,3.63-3.02l1.3,3.02,14.19,8.85,.65,6.68c.11,1.18,.48,2.33,1.19,3.28Z" fill="#f1b2c0" stroke="#002346" stroke-miterlimit="10"></path>
  <path d="M329.78,624.47s17.95,8.41,21.95-5.5l-21.95,5.5Z" fill="#e6e7e8" stroke="#002346" stroke-miterlimit="10"></path>
  <path d="M359.12,617.12l10.58,8.24c1.38,1.08,2.98,1.84,4.69,2.23l11.8,2.71c2.9,.67,4.96,3.25,4.96,6.23h0s-10.93,2.07-33.92,.94c0,0-11.31,.75-21.48-4.9,0,0-5.65-3.01-12.06-1.88v-4.74l6.08-1.48s7.72,3.7,14.38,2.13c0,0,6.2-1.25,7.56-7.63l7.39-1.85Z" fill="#ffc800" stroke="#002346" stroke-miterlimit="10"></path>
  <path d="M306.74,626.19v4.87h-3.61c-1.58,0-3.13,.44-4.47,1.29l-7.42,4.66c-.83,.52-1.79,.8-2.77,.8h-30.75c0-1.79,.99-3.43,2.58-4.25l11.08-5.76c.84-.44,1.52-1.13,1.92-1.99,.81-1.74,3.29-4.71,10.84-4.17,0,0,7.28,.46,9.04,3.01,3.39,4.9,7.73,1.18,7.73,1.18l5.84,.35Z" fill="#ffc800" stroke="#002346" stroke-miterlimit="10"></path>
  <path d="M140.74,268.35l-7.91,3.01,21.05,75.18c.02,.08,.12,.1,.16,.03,1.07-1.68,9.94-16.55,13.84-53.35l1.13-19.6-3.47-2.44-10.85-4.28-13.94,1.45Z" fill="#e6e7e8" stroke="#002346" stroke-miterlimit="10"></path>
  <line x1="123.41" y1="312.06" x2="100.79" y2="335.43" fill="none" stroke="#002346" stroke-linecap="round" stroke-linejoin="round"></line>
  <line x1="121.14" y1="302.64" x2="119.52" y2="316.08" fill="none" stroke="#002346" stroke-linecap="round" stroke-linejoin="round"></line>
  <path d="M113.8,286.04s6.97,4.43,9.61,11.65" fill="none" stroke="#002346" stroke-linecap="round" stroke-linejoin="round"></path>
  <path d="M135.83,320.34s2.29,4.04,1.21,8.02c-.5,1.83-2.58,2.67-4.19,1.67-.97-.6-2.15-1.61-3.52-3.26l6.5-6.42Z" fill="#002aff" stroke="#002346" stroke-miterlimit="10"></path>
  <path d="M132.83,335.43s-4.52,8.29-10.55,13.57" fill="none" stroke="#002346" stroke-linecap="round" stroke-linejoin="round"></path>
  <path d="M150.92,343.56s-6.78-26.97-14.7-38.65c0,0-5.65-7.91-1.13-12.06" fill="none" stroke="#002346" stroke-linecap="round" stroke-linejoin="round"></path>
  <path d="M137.5,294.46l-7.15-4.71c-.64-.42-1.01-1.14-.99-1.9l.41-14.5" fill="none" stroke="#002346" stroke-linecap="round" stroke-linejoin="round"></path>
  <path d="M171.32,294.46l6.29-4.53c.72-.52,1.06-1.42,.86-2.29l-2.46-10.52" fill="none" stroke="#002346" stroke-linecap="round" stroke-linejoin="round"></path>
  <path d="M173.9,294.46l.93,6.6c.14,.98-.11,1.97-.69,2.77-1.1,1.5-2.88,4.2-3.64,6.72,0,0-4.41,21.48-14.27,38.44,0,0-1.87,2.53-3.77,8.11-1.08,3.17-1.44,6.53-1.11,9.86l.69,6.9" fill="none" stroke="#002346" stroke-linecap="round" stroke-linejoin="round"></path>
  <line x1="185.21" y1="319.22" x2="208.95" y2="339.2" fill="none" stroke="#002346" stroke-linecap="round" stroke-linejoin="round"></line>
  <line x1="187.85" y1="305.28" x2="190.58" y2="323.74" fill="none" stroke="#002346" stroke-linecap="round" stroke-linejoin="round"></line>
  <path d="M192.41,286.04s-4.35,.67-8.6,11.65" fill="none" stroke="#002346" stroke-linecap="round" stroke-linejoin="round"></path>
  <line x1="180.31" y1="345.6" x2="175.06" y2="340.76" fill="none" stroke="#002346" stroke-linecap="round" stroke-linejoin="round"></line>
  <path d="M179.93,335.43s-1.71,2.36-4.5,3.36c-1.9,.68-3.9-.82-3.81-2.84,.07-1.45,.62-3.33,2.33-5.49l5.98,4.98Z" fill="#002aff" stroke="#002346" stroke-miterlimit="10"></path>
  <path d="M140.98,598.36l-.62,20.07s7.16,4.9,13.94,4.9c0,0-1.13-7.54,3.77-7.91l.82-12.14s-6.36,.63-17.91-4.92Z" fill="#f1b2c0" stroke="#002346" stroke-miterlimit="10"></path>
  <path d="M140.36,618.44l-3.01,16.2,58.79,2.64h0c0-1.9-1.08-3.63-2.78-4.47l-35.28-17.39s-4.9,0-3.77,7.91c0,0-4.9,.75-13.94-4.9Z" fill="#002aff" stroke="#002346" stroke-miterlimit="10"></path>
  <path d="M101.25,581.07l-1.2,2.54c-1.07,2.27-1.24,4.91-.25,7.22,.28,.64,.63,1.28,1.1,1.86,.13,.16,.4,.1,.46-.1,.46-1.75,2.45-7.46,8.85-6.18,0,0,6.21,1.38,5.76,8.76-.02,.27,.34,.38,.48,.15,.01-.02,.02-.03,.03-.05,1.35-2.27,2.03-4.89,2.03-7.53v-3.45s-9.64,1.25-17.26-3.21Z" fill="#f1b2c0" stroke="#002346" stroke-miterlimit="10"></path>
  <path d="M133.81,305.47l6.63-15.22c.44-1.02,1.1-1.94,1.92-2.69l6.87-6.31c1.12-1.03,2.86-.97,3.91,.12h0s3.81-3.98,5.32-2.09c0,0,2.64-1.88,3.39,1.51,0,0,1.88,1.46,0,3.74l-6.9,6.45s3.89,.94,2,4.61l-1.4,3.27c-.3,.7-.48,1.45-.49,2.22,0,1.06-.54,3.04-3.82,5.18l-12.39,11.09s-4.06-6.03-5.04-11.87Z" fill="#f1b2c0" stroke="#002346" stroke-miterlimit="10"></path>
  <line x1="153.14" y1="281.37" x2="146.77" y2="288.32" fill="none" stroke="#002346" stroke-linecap="round" stroke-linejoin="round"></line>
  <line x1="161.84" y1="280.78" x2="155.03" y2="287.96" fill="none" stroke="#002346" stroke-linecap="round" stroke-linejoin="round"></line>
  <line x1="158.45" y1="279.28" x2="152.48" y2="286.04" fill="none" stroke="#002346" stroke-linecap="round" stroke-linejoin="round"></line>
  <path d="M143.38,290.58s14.76-1.67,10.4,3.88c0,0,.83,1.3-1.01,2.64-.8,.58-1.76,.88-2.75,.95-.83,.06-2.11,.32-3.25,1.22" fill="none" stroke="#002346" stroke-linecap="round" stroke-linejoin="round"></path>
  <path d="M698.5,268.64s-1.46,.67,3.12,4.06v5.72s-5.22,7.46-15.77,7.08l.1-9.8s8.62,.96,12.55-7.06Z" fill="#f1b2c0" stroke="#002346" stroke-miterlimit="10"></path>
  <path d="M717.64,308.78c3.28-9.29,6.88-24.89-5.2-26.21-1.16-.13-2.27-.55-3.16-1.3l-3.74-3.16c-1.17-.99-2.92-.85-3.92,.31,0,0-4.46,7.08-15.77,7.08h-.25c-.93,0-1.69,.76-1.69,1.69v2.08h-9.36s-6.03-1.13-8.67,6.03l-21.48-30.9-11.76,15.45,15.02,25.44h0l-16.83,9.23s-6.41-21.1-7.16-35.8l-17.52-3.01-1,32.33s-1.92,30.26,10.91,37.29c1.15,.63,2.45,.94,3.77,.91,3.58-.09,12.44-1.24,26.03-8.97,0,0,2.31,11.17-2.97,22.48,0,0-5.23,7.55-4.21,15.52,.27,2.13,1.96,3.82,4.09,4.03,4,.39,12.45,.26,29.51-2.96l24.7-5.41c1.8-.4,3.69-.09,5.28,.84l3.93,2.31s6.78-2.26-1.51-19.22c0,0-3.01-4.52,0-10.17,0,0,8.66-12.69,10.06-24.2,.49-3.99,1.55-7.89,2.89-11.68Z" fill="#ffc800" stroke="#002346" stroke-miterlimit="10"></path>
  <path d="M647.65,305.28l10.14,15.94c3.52,5.53,10.24,8.13,16.57,6.41l37.11-10.1" fill="none" stroke="#002346" stroke-linecap="round" stroke-linejoin="round"></path>
  <path d="M697.72,321.27s5.09,5.03,13.75,5.17" fill="none" stroke="#002346" stroke-linecap="round" stroke-linejoin="round"></path>
  <path d="M608.59,590.96v8.99h6.35c2.09,0,3.83,1.59,4.01,3.67l.56,6.34h5.65l1.13-15.07s-6.78-3.71-17.71-3.93Z" fill="#f1b2c0" stroke="#002346" stroke-miterlimit="10"></path>
  <path d="M626.3,628.51s-9.67,.63-18.28,6.21c-1.58,1.03-3.46,1.49-5.33,1.37-1.81-.12-4.3-.36-7.29-.89,0,0-9.04-2.64-14.7,.38,0,0,.75-5.28,8.67-9.8,0,0,15.45-11.31,16.58-19.6v-3.55c0-1.57,1.29-2.84,2.86-2.81l6.13,.11s3.45-.4,4.01,3.67l.57,6.34h5.65l1.13,18.56Z" fill="#ffc800" stroke="#002346" stroke-miterlimit="10"></path>
  <path d="M670.96,596.09l.94,11.61h3.4l.54-5.32c.25-2.45,2.47-4.2,4.91-3.87l8.91,1.34-.13-3.75s-8.21-6.34-18.57,0Z" fill="#f1b2c0" stroke="#002346" stroke-miterlimit="10"></path>
  <path d="M671.9,607.7l-1.88,19.22s3.39-.38,6.41,4.15c0,0,1.51,3.77,9.42,3.39l15.07-1.13s.38-4.15-4.52-8.29c0,0-5.65-4.52-5.28-12.06l.75-9.8s.47-2.91-2.21-3.34l-8.91-1.34s-4.61-.32-4.91,3.87l-.54,5.32h-3.4Z" fill="#ffc800" stroke="#002346" stroke-miterlimit="10"></path>
  <path d="M634.42,277.5l-8.7-18.57c-1.1-2.34-1.56-4.94-1.34-7.52l1.15-13.4s.4-1.51,1.91-.75c0,0-.93-5.96,1.79-4.49,0,0,.78-4.77,2.69-2.4,0,0,4.05-.65,4.8,4.63l3.97,15.05c.06,.24,.42,.24,.46-.01,.33-1.77,1.34-4.96,4.31-5.23,.41-.04,.74,.34,.67,.74l-.99,5.28s-.25,3.48-1.35,6c-.54,1.24-.85,2.56-.78,3.91l.27,5.12-8.86,11.64Z" fill="#f1b2c0" stroke="#002346" stroke-miterlimit="10"></path>
  <path d="M600.68,238.77s1.51-2.26,4.15,1.51l8.3,10.37c.61,.76,1.63,1.11,2.55,.79,.56-.19,.99-.58,.83-1.37,0,0-.75-4.9,2.64-4.15v3.25c0,.81,.27,1.61,.79,2.23,1.18,1.43,3.25,4.62,2.98,9.22l-.56,17.86-13.67-2.35-.06-6.88c-.02-2.42-.84-4.77-2.32-6.68l-12.86-16.53c-.4-.51-.39-1.23,.02-1.74h0c.54-.67,1.54-.7,2.12-.06l2.82,3.1c.4,.44,1.1,.4,1.45-.07h0c.26-.35,.25-.83-.03-1.17l-4.81-5.78c-.34-.4-.47-.96-.29-1.45s.65-.94,1.79-.79c0,0-.02-3.89,1.91-1.97,.75,.75,2.26,2.64,2.26,2.64Z" fill="#f1b2c0" stroke="#002346" stroke-miterlimit="10"></path>
  <line x1="596.51" y1="238.09" x2="602.19" y2="244.8" fill="none" stroke="#002346" stroke-linecap="round" stroke-linejoin="round"></line>
  <line x1="600.68" y1="238.77" x2="604.31" y2="243.04" fill="none" stroke="#002346" stroke-linecap="round" stroke-linejoin="round"></line>
  <rect x="674.54" y="238.01" width="25.25" height="37.68" rx="12.62" ry="12.62" fill="#f1b2c0" stroke="#002346" stroke-miterlimit="10"></rect>
  <path d="M645.85,337.26s-3.72-8.05,.3-15.99" fill="none" stroke="#002346" stroke-linecap="round" stroke-linejoin="round"></path>
  <line x1="665.87" y1="295.29" x2="674.54" y2="306.31" fill="none" stroke="#002346" stroke-linecap="round" stroke-linejoin="round"></line>
  <path d="M630.83,314.51s1.13,2.64,2.64,6.03" fill="none" stroke="#002346" stroke-linecap="round" stroke-linejoin="round"></path>
  <path d="M683.9,289.26s8.73,1.13,18.52-4.9" fill="none" stroke="#002346" stroke-linecap="round" stroke-linejoin="round"></path>
  <path d="M484.23,257.23l1.13,6.78s11.31,2.26,17.33-8.29l-4.05-10.54-14.42,12.05Z" fill="#f1b2c0" stroke="#002346" stroke-miterlimit="10"></path>
  <rect x="467.82" y="217.59" width="28.79" height="40.94" rx="14.4" ry="14.4" transform="translate(-52.64 182.11) rotate(-20.3)" fill="#f1b2c0" stroke="#002346" stroke-miterlimit="10"></rect>
  <path d="M465.54,234.74c-1.89-3.34-7.45-14.44,.56-17.03,0,0,9.46-17.38,25.29-7.96,0,0,6.03,.31,7.73,5.81,0,0,7.7,4.76,3.91,18.4l-8.4-2.34s-1.68-2.27-5.47-3.4c0,0-3.69-1.91-5.19-4.81-.49-.96-1.62-1.38-2.62-.98-1.65,.66-4.32,1.3-8.04,.89,0,0-5.43-1.53-7.07,11.28-.05,.36-.52,.45-.69,.14Z" fill="#002346" stroke="#002346" stroke-miterlimit="10"></path>
  <ellipse cx="499.12" cy="234.62" rx="3.91" ry="4.92" fill="#f1b2c0" stroke="#002346" stroke-miterlimit="10"></ellipse>
  <path d="M400.47,633.21c3.01-.56,15.68-3.39,21.96-12.32,0,0,3.73-7.16,10.91,.75l1.12,1.47c1.21,1.6,3.22,2.41,5.2,2.06,.59-.1,1.25-.27,1.99-.52l8.95-3.92,2.43,.63,.68,9.7s-28.26,4.15-41.45,3.39c0,0-9.25,.75-11.87-.19-.52-.19-.46-.95,.08-1.05Z" fill="#002aff" stroke="#002346" stroke-miterlimit="10"></path>
  <path d="M379.81,333.73h-4.92c-1.05,0-2.06-.44-2.77-1.22-1.8-1.96-5.76-5.82-10.93-8.1-1.92-.85-4.17-.01-5.08,1.88l-2.05,4.27c-.57,1.19-.25,2.62,.77,3.46h0c1.29,1.06,3.22,.79,4.17-.59l1.62-2.35s6.03,4.52,21.48,21.86h3.92s-2.41-14.32-6.21-19.22Z" fill="#f1b2c0" stroke="#002346" stroke-miterlimit="10"></path>
  <rect x="318" y="211.18" width="27.87" height="44.46" rx="13.94" ry="13.94" transform="translate(42.34 -50.84) rotate(9.35)" fill="#f1b2c0" stroke="#002346" stroke-miterlimit="10"></rect>
  <path d="M317.03,240.96s1.07-2.83,1.23-10.24c0,0,4.69-4.77,6.19-12.68,0,0,1.51-4.9,6.78-.75,0,0,6.03,6.78,11.31,1.13,0,0,4.1,.81,4.5,9.07,0,0,4.17-4.93,3.41-13.22,0,0-.54-5.38-4.11-4.1-3.16,1.13-6.7,.25-8.59-2.52-.04-.06-.08-.11-.11-.17,0,0-5.65-10.17-10.93-2.64,0,0-7.68,1.11-7.91,9.04,0,0-4.9-1.51-6.03,12.81,0,0-.38,5.65,2.64,7.54,0,0-2.76-.07-2.38,6.72h4Z" fill="#002346" stroke="#002346" stroke-miterlimit="10"></path>
  <line x1="375.7" y1="355.21" x2="363.64" y2="342.66" fill="none" stroke="#002346" stroke-linecap="round" stroke-linejoin="round"></line>
  <line x1="369.91" y1="355.63" x2="361.01" y2="346.17" fill="none" stroke="#002346" stroke-linecap="round" stroke-linejoin="round"></line>
  <line x1="362.14" y1="355.96" x2="356.59" y2="349.79" fill="none" stroke="#002346" stroke-linecap="round" stroke-linejoin="round"></line>
  <path d="M149.32,245.41s-.29,15.41-8.58,22.94l8.78,3.1c2.65,.94,5.49,1.22,8.27,.83l7.75-1.09-1.77-1.91c-.98-1.06-1.46-2.5-1.31-3.94l.26-2.53s-11.13-2.39-10.9-13.68l.12-4.31-3.66-1.7,1.04,2.31Z" fill="#f1b2c0" stroke="#002346" stroke-miterlimit="10"></path>
  <rect x="151.97" y="224.75" width="27.13" height="38.31" rx="13.57" ry="13.57" transform="translate(6.91 -4.55) rotate(1.61)" fill="#f1b2c0" stroke="#002346" stroke-miterlimit="10"></rect>
  <path d="M149.5,302.64s.21-2.64,3.64,0l7.12,5.94c.87,.72,2.15,.78,3.02,.06,.45-.38,.8-.95,.8-1.81,0-.69-.26-1.36-.67-1.91-.5-.68-1.19-1.99-.73-3.6,.15-.53,.82-.7,1.23-.33,.77,.71,1.94,1.73,2.72,2.13,0,0,2.74,.65,3.5,5.54,0,0,1.35,4.1,4.44,4.69,0,0-1.05,7.27-6.7,12.03l-6.42-6.17s-5.26,.5-10.54-3.14c0,0-7.25-4.52-4.57-6.72,0,0-3.12-3.29-.6-4.82l-.54-.67c-.57-.7-.53-1.72,.1-2.37h0c.62-.64,1.62-.73,2.34-.2l1.84,1.34Z" fill="#f1b2c0" stroke="#002346" stroke-miterlimit="10"></path>
  <line x1="146.35" y1="309.36" x2="151.24" y2="312.83" fill="none" stroke="#002346" stroke-linecap="round" stroke-linejoin="round"></line>
  <line x1="145.75" y1="304.54" x2="153.77" y2="310.56" fill="none" stroke="#002346" stroke-linecap="round" stroke-linejoin="round"></line>
  <line x1="149.5" y1="302.64" x2="156.94" y2="308.29" fill="none" stroke="#002346" stroke-linecap="round" stroke-linejoin="round"></line>
  <g>
    <ellipse cx="148.37" cy="217.33" rx="8.19" ry="8.33" transform="translate(-18.51 13.87) rotate(-5.04)" fill="#002346" stroke="#002346" stroke-miterlimit="10"></ellipse>
    <ellipse cx="153.61" cy="221.99" rx="6.3" ry="6.41" transform="translate(-18.9 14.35) rotate(-5.04)" fill="#002aff" stroke="#002346" stroke-miterlimit="10"></ellipse>
    <path d="M173.99,230.99c-1.63,1.57-5.21,4.07-12.23,5.24,0,0,.74,4.5-4.45,8.97-1.51,1.3-2.54,3.1-2.8,5.1-.42,3.17-1.42,8.92,4.18,12.18,0,0-3.27,1.02-8.38-.23,0,0-2.83,3.44-8,3.63-2.13,.08-4.17-1.05-5.17-2.97-1.33-2.55-2.21-7.24,.18-15.63,0,0,4.92-29.25,21.46-30.71,0,0,7.52-1.88,14.33,1.08,6.87,2.98,11.09,11.1,6.53,19.75l-.97-1.48c-1.07-1.93-1.27-2.31-1.94-4.24-.07-.19-.17-.38-.29-.53h0c-.63-.77-1.73-.86-2.44-.17Z" fill="#002346" stroke="#002346" stroke-miterlimit="10"></path>
  </g>
  <g>
    <ellipse cx="703.07" cy="233.15" rx="7.53" ry="7.4" transform="translate(409.07 913.02) rotate(-84.96)" fill="#002346" stroke="#002346" stroke-miterlimit="10"></ellipse>
    <ellipse cx="698.33" cy="237.36" rx="5.79" ry="5.7" transform="translate(400.56 912.14) rotate(-84.96)" fill="#ffc800" stroke="#002346" stroke-miterlimit="10"></ellipse>
    <path d="M679.9,245.5c1.48,1.42,4.71,3.68,11.06,4.74,0,0-.67,4.07,4.03,8.11,1.36,1.17,2.29,2.81,2.53,4.61,.38,2.86,1.29,8.06-3.78,11.01,0,0,2.96,.92,7.58-.21,0,0,2.56,3.11,7.23,3.29,1.92,.07,3.77-.95,4.68-2.68,1.2-2.3,2-6.55-.16-14.13,0,0-4.45-26.45-19.41-27.77,0,0-6.8-1.7-12.96,.98-6.21,2.7-10.03,10.04-5.9,17.86l.88-1.33c.96-1.74,1.15-2.09,1.75-3.83,.06-.17,.15-.34,.27-.48h0c.57-.7,1.57-.78,2.21-.15Z" fill="#002346" stroke="#002346" stroke-miterlimit="10"></path>
  </g>
  <ellipse cx="150.73" cy="240.65" rx="4.75" ry="3.7" transform="translate(-104.08 365.97) rotate(-84.13)" fill="#f1b2c0" stroke="#002346" stroke-miterlimit="10"></ellipse>
  <path d="M123.41,312.06s1.67,9.04,5.92,14.7l9.53-9.42s-2.83-6.38-5.19-12.96c-.23-.65-.88-1-1.39-.53l-8.88,8.22Z" fill="#fff" stroke="#002346" stroke-miterlimit="10"></path>
  <path d="M153.77,294.46s-3.75-1.5-9.75,1.5" fill="none" stroke="#002346" stroke-linecap="round" stroke-linejoin="round"></path>
  <path d="M185.21,319.22s1.13,9.8-5.28,16.2l-12.06-10.03s3.16-5.43,6.96-13.41c.27-.56,.83-.89,1.3-.49l9.07,7.72Z" fill="#fff" stroke="#002346" stroke-miterlimit="10"></path>
  <ellipse cx="312.96" cy="237.45" rx="3.96" ry="5.46" transform="translate(-31.93 49.36) rotate(-8.58)" fill="#f1b2c0" stroke="#002346" stroke-miterlimit="10"></ellipse>
  <ellipse cx="478.53" cy="225.96" rx="10.5" ry="5" fill="#002346" stroke="#002346" stroke-miterlimit="10"></ellipse>
  <line x1="627.44" y1="237.26" x2="629.03" y2="245.96" fill="none" stroke="#002346" stroke-linecap="round" stroke-linejoin="round"></line>
  <line x1="629.44" y1="233.26" x2="631.03" y2="241.96" fill="none" stroke="#002346" stroke-linecap="round" stroke-linejoin="round"></line>
  <line x1="631.44" y1="230.26" x2="634.03" y2="240.96" fill="none" stroke="#002346" stroke-linecap="round" stroke-linejoin="round"></line>
  <path d="M79.71,39.79h218c3.87,0,7,3.13,7,7v59.14c0,10.42-8.44,18.86-18.86,18.86H91.57c-10.42,0-18.86-8.44-18.86-18.86V46.79c0-3.87,3.13-7,7-7Z" fill="#e6e7e8" stroke="#002346" stroke-miterlimit="10"></path>
  <path d="M86.71,39.79h218c3.87,0,7,3.13,7,7v59.14c0,10.42-8.44,18.86-18.86,18.86H98.57c-10.42,0-18.86-8.44-18.86-18.86V46.79c0-3.87,3.13-7,7-7Z" fill="#fff" stroke="#002346" stroke-miterlimit="10"></path>
  <path d="M104.71,50.79h28c2.21,0,4,1.79,4,4h0c0,2.21-1.79,4-4,4h-28c-2.21,0-4-1.79-4-4h0c0-2.21,1.79-4,4-4Z" fill="#e6e7e8" stroke="#002346" stroke-miterlimit="10"></path>
  <path d="M104.71,63.79h28c2.21,0,4,1.79,4,4h0c0,2.21-1.79,4-4,4h-28c-2.21,0-4-1.79-4-4h0c0-2.21,1.79-4,4-4Z" fill="#e6e7e8" stroke="#002346" stroke-miterlimit="10"></path>
  <circle cx="287.21" cy="64.29" r="6.5" fill="#002aff" stroke="#002346" stroke-miterlimit="10"></circle>
  <path d="M125.71,96.79h140c8.84,0,16,7.16,16,16H109.71c0-8.84,7.16-16,16-16Z" fill="#002aff" stroke="#002346" stroke-miterlimit="10"></path>
  <path d="M140.71,135.79c4.79,2.76,4.46,9.5,3.66,14.25-.65,3.36-2.32,6.26-2.83,9.61-.66,3.18-.52,6.47,.41,9.58,.53,1.58,1.25,3.08,2.14,4.49-1.24-1.19-2.27-2.58-3.05-4.12-2.32-4.77-1.88-10.47-.06-15.32,2.06-5.19,4.31-14.14-.27-18.49h0Z" fill="#e6e7e8"></path>
  <path d="M175.71,135.79c4.79,2.76,4.46,9.5,3.66,14.25-.65,3.36-2.32,6.26-2.83,9.61-.66,3.18-.52,6.47,.41,9.58,.53,1.58,1.25,3.08,2.14,4.49-1.24-1.19-2.27-2.58-3.05-4.12-2.32-4.77-1.88-10.47-.06-15.32,2.06-5.19,4.31-14.14-.27-18.49h0Z" fill="#e6e7e8"></path>
  <path d="M211.71,135.79c4.79,2.76,4.46,9.5,3.66,14.25-.65,3.36-2.32,6.26-2.83,9.61-.66,3.18-.52,6.47,.41,9.58,.53,1.58,1.25,3.08,2.14,4.49-1.24-1.19-2.27-2.58-3.05-4.12-2.32-4.77-1.88-10.47-.06-15.32,2.06-5.19,4.31-14.14-.27-18.49h0Z" fill="#e6e7e8"></path>
  <path d="M247.71,135.79c4.79,2.76,4.46,9.5,3.66,14.25-.65,3.36-2.32,6.26-2.83,9.61-.66,3.18-.52,6.47,.41,9.58,.53,1.58,1.25,3.08,2.14,4.49-1.24-1.19-2.27-2.58-3.05-4.12-2.32-4.77-1.88-10.47-.06-15.32,2.06-5.19,4.31-14.14-.27-18.49h0Z" fill="#e6e7e8"></path>
  <line x1="127.55" y1="104.79" x2="265.66" y2="104.79" fill="none" stroke="#002346" stroke-linecap="round" stroke-linejoin="round"></line>
</svg>
