<?xml version="1.0" encoding="UTF-8"?>
<svg xmlns="http://www.w3.org/2000/svg" id="a" width="865.76" height="682.89" viewBox="0 0 865.76 682.89">
  <path d="M53.13,612.91c-.28,0-.5-.22-.5-.5s.22-.5,.5-.5l759.5-1h0c.28,0,.5,.22,.5,.5s-.22,.5-.5,.5l-759.5,1h0Z" fill="#002346"></path>
  <g>
    <rect x="94.93" y="76.96" width="286.21" height="177.52" fill="#fff"></rect>
    <path d="M381.64,254.98H94.43V76.46H381.64V254.98Zm-286.21-1H380.64V77.46H95.43V253.98Z" fill="#002346"></path>
  </g>
  <g>
    <rect x="171.49" y="305.62" width="196.68" height="289.95" fill="#fff"></rect>
    <path d="M368.67,596.07H170.99V305.12h197.68v290.95Zm-196.68-1h195.68V306.12H171.99v288.95Z" fill="#002346"></path>
  </g>
  <g>
    <path d="M513.81,486.79c-.39,22.53-6.42,78.45-6.42,78.45l-21.73,.4s-.42-5.32-1.19-13.68c-2.42-26.39-8.29-83.18-15.3-99.37,0,0-4.44-12.87-6.84-38.62l-2.43-34.59-2,55.92s-5.69,69.07-15.59,88.89c-.54,1.07-1.61,1.78-2.81,1.86-3.25,.24-10,0-15-4.67v-10.2c0-25-.14-88.3-.79-99.22,0,0-10.05-77.23-5.24-111l3.23-1.2,85.7,8.18,1.67,.16s4.74,5.32,3.94,74.12c0,0,0,50.28,1.2,61.95,1.2,11.67,0,20.09-.4,42.62Z" fill="#4f32f1"></path>
    <path d="M485.2,566.15l-.04-.47c0-.05-.43-5.41-1.19-13.67-2.24-24.4-8.2-82.92-15.26-99.22-.06-.16-4.5-13.26-6.88-38.77l-1.77-25.19-1.66,46.49c-.06,.71-5.81,69.42-15.64,89.1-.62,1.23-1.85,2.05-3.22,2.14-2.85,.21-10.05,.16-15.37-4.8l-.16-.15v-10.42c0-29.72-.17-88.71-.79-99.19-.1-.74-10-77.65-5.24-111.1l.04-.29,3.62-1.34h.11s87.57,8.37,87.57,8.37l.13,.15c.2,.22,4.86,6.25,4.07,74.46,0,.5,.01,50.38,1.2,61.89,.79,7.65,.54,14,.17,23.6-.19,5.02-.43,11.26-.57,19.07-.39,22.29-6.36,77.94-6.42,78.5l-.05,.44-22.64,.42Zm-24.8-186.8l2.43,34.59c2.36,25.37,6.77,38.36,6.81,38.49,7.1,16.4,13.08,75.04,15.33,99.49,.63,6.87,1.03,11.74,1.15,13.22l20.82-.38c.57-5.3,6-56.77,6.37-77.97h0c.14-7.82,.38-14.07,.57-19.09,.37-9.56,.61-15.88-.17-23.46-1.19-11.56-1.2-61.5-1.2-62,.72-62.23-3.06-72.35-3.73-73.65l-87.01-8.3-2.84,1.06c-4.65,33.47,5.18,109.8,5.28,110.57,.63,10.54,.79,69.55,.79,99.28v9.98c5.01,4.55,11.77,4.59,14.46,4.39,1.02-.07,1.94-.67,2.4-1.59,9.74-19.51,15.48-88.02,15.54-88.71l2-55.9,1-.02Z" fill="#002346"></path>
  </g>
  <g>
    <path d="M573.96,199.59c-7.2-3.45-29.41,19-29.41,19l-25.38-38.64c-5.49-7.21-26.83-9.24-26.83-9.24l-35.18-.57c-4.33,.07-24.57,4.45-24.57,4.45-17,3.47-23.35,46.15-23.35,46.15l-8.08,46.14c-4.91,25.38,11,24.51,11,24.51l4.74,4.54,1.6,1.53c9.23,20.19,47.31,22.78,47.31,22.78,24.8,4.9,43.26-12.11,43.26-12.11-2.89-6.64-.58-14.42-.58-14.42,3.75-12.12,6.92-39.52,6.92-39.52,28.55,23.66,45.86-2.31,45.86-2.31l27.12-42.68c-10.67,.82-14.43-9.61-14.43-9.61Zm-147,32.09h-3.64s.81-5.47,3.64-7.9v7.9Z" fill="#ffdd00"></path>
    <path d="M474.76,321.62c-2.91,0-5.93-.27-9.05-.89-1.5-.1-38.31-2.83-47.63-22.97l-6.12-5.86c-1.03,.01-5.3-.22-8.55-3.95-3.71-4.26-4.64-11.38-2.75-21.16l8.08-46.13c.26-1.74,6.6-43.05,23.74-46.55,.82-.18,20.33-4.39,24.66-4.46l35.2,.57c.92,.09,21.66,2.14,27.22,9.44l25.06,38.16c3.25-3.23,22.59-22,29.54-18.66l.18,.09,.07,.19c.15,.41,3.74,10.07,13.92,9.28l1-.08-27.66,43.52c-.08,.11-7.08,10.44-19.29,12.22-8.52,1.25-17.46-1.85-26.61-9.22-.59,4.85-3.5,27.92-6.83,38.71-.02,.07-2.22,7.68,.56,14.07l.14,.33-.26,.24c-.16,.15-14.5,13.12-34.64,13.12Zm-62.42-30.74l6.61,6.37c9,19.69,46.51,22.46,46.89,22.49,22.74,4.49,40.29-9.74,42.62-11.75-2.71-6.65-.55-14.11-.46-14.42,3.7-11.94,6.87-39.16,6.9-39.44l.11-.92,.71,.59c9.16,7.59,18.07,10.8,26.52,9.58,11.76-1.72,18.54-11.68,18.61-11.78l26.6-41.86c-.08,0-.16,0-.24,0-9.2,0-13.05-8.35-13.65-9.78-5.81-2.32-22.62,12.86-28.67,18.98l-.43,.44-25.72-39.16c-5.27-6.92-26.25-9-26.46-9.02l-35.14-.57c-4.22,.07-24.25,4.4-24.46,4.44-16.47,3.36-22.9,45.31-22.96,45.73l-8.08,46.15c-1.83,9.46-.99,16.29,2.5,20.31,3.31,3.81,7.93,3.61,7.98,3.61h.22Zm15.11-58.71h-4.72l.08-.57c.03-.23,.87-5.68,3.81-8.21l.83-.71v9.49Zm-3.54-1h2.54v-6.15c-1.56,1.97-2.29,4.92-2.54,6.15Z" fill="#002346"></path>
  </g>
  <g>
    <path d="M485.66,565.64s-.69,8.7-3.46,13.18c0,0-23.68,25.17-12.59,25.81,0,0,9.17,5.34,26.46-11.94l8.69-8.87c1.41-1.43,2.22-3.34,2.27-5.35l.36-13.23-21.73,.4Z" fill="#ffdd00"></path>
    <path d="M473.59,605.94c-2.34,0-3.72-.61-4.13-.81-1.61-.12-2.64-.74-3.09-1.85-2.26-5.68,13.44-22.65,15.42-24.76,2.65-4.34,3.35-12.83,3.36-12.91l.04-.45,22.71-.42-.37,13.75c-.06,2.14-.92,4.16-2.41,5.69l-8.69,8.87c-10.79,10.78-18.47,12.89-22.83,12.89Zm12.52-39.8c-.18,1.87-1.02,8.96-3.49,12.95l-.06,.08c-4.83,5.13-16.98,19.4-15.25,23.74,.3,.76,1.06,1.16,2.33,1.23h.12s.1,.07,.1,.07c.09,.05,9.1,4.88,25.85-11.86l8.69-8.87c1.32-1.35,2.08-3.13,2.13-5.01l.35-12.71-20.76,.38Z" fill="#002346"></path>
  </g>
  <g>
    <path d="M424.52,521.38s-9.28,9.54-16.82,9.09c0,0-34.3,4.11-27.44,11.43,0,0,26.64,9.3,55.32-3.81,2.11-.97,3.5-3.04,3.61-5.36l.3-6.68s-8.67,.88-14.97-4.67Z" fill="#ffdd00"></path>
    <path d="M402.83,545.56c-13.34,0-22.58-3.13-22.74-3.19l-.12-.04-.08-.09c-.97-1.03-1.27-2.09-.88-3.14,2.11-5.79,25.92-8.8,28.63-9.13,7.34,.42,16.43-8.85,16.52-8.94l.33-.34,.36,.31c6.05,5.33,14.5,4.56,14.59,4.55l.58-.06-.33,7.26c-.12,2.52-1.61,4.74-3.9,5.79-11.87,5.42-23.46,7.02-32.96,7.02Zm-22.29-4.09c1.95,.64,27.63,8.6,54.83-3.83,1.95-.9,3.22-2.78,3.32-4.93l.27-6.12c-2.04,.1-8.95,.04-14.42-4.53-1.76,1.73-9.9,9.32-16.88,8.91-7.1,.86-26.11,4.06-27.72,8.47-.24,.65-.04,1.31,.59,2.02Z" fill="#002346"></path>
  </g>
  <g>
    <path d="M573.96,199.59s-2.25-16.09,5-22.47l15.91-13.13c.65-.53,1.57-.55,2.24-.05h0c.78,.59,.95,1.7,.38,2.5l-8.11,11.32s4.67,.42,5.1,4.67c0,0,2.76-.85,4.89,3,0,0,4.68-.64,5.53,4.89l.1,2.14c.24,2.3-1.43,4.36-3.74,4.6-1.15,.12-2.3-.24-3.17-1,0,0,.84,10.41-9.68,13.07-.02,.02-10.07,1.46-14.45-9.54Z" fill="#f2b3c1"></path>
    <path d="M587.24,209.71c-.88,0-2.03-.1-3.13-.34-3.4-.74-8-3.01-10.62-9.59l-.03-.12c-.09-.67-2.2-16.43,5.17-22.92l15.92-13.14c.83-.68,2-.7,2.86-.07,1,.77,1.22,2.17,.49,3.19l-7.66,10.69c1.38,.34,4.08,1.39,4.66,4.44,.98-.09,3.04,.18,4.75,3.06,1.16-.05,4.97,.29,5.74,5.33l.1,2.19c.26,2.54-1.61,4.85-4.18,5.12-.94,.1-1.9-.1-2.72-.55-.1,2.74-1.21,10.37-10.06,12.6v-.02c-.27,.07-.73,.11-1.29,.11Zm-12.8-10.24c4.16,10.36,13.5,9.23,13.86,9.18,9.98-2.53,9.3-12.44,9.29-12.54l-.1-1.22,.92,.8c.77,.66,1.79,.98,2.8,.88,2.02-.21,3.5-2.03,3.29-4.05l-.1-2.17c-.76-4.91-4.79-4.44-4.96-4.42l-.34,.04-.17-.3c-1.89-3.42-4.21-2.79-4.31-2.76l-.58,.17-.06-.59c-.38-3.78-4.48-4.21-4.65-4.22l-.87-.08,8.62-12.03c.41-.58,.29-1.38-.28-1.81-.48-.36-1.15-.34-1.62,.04l-15.91,13.13c-6.74,5.93-4.97,20.9-4.83,21.96Z" fill="#002346"></path>
  </g>
  <path d="M600.24,197.65c-.46,0-.89-.09-1.29-.27-1.71-.76-2.28-2.9-2.47-3.94-1.79,.4-3.09,.19-3.88-.63-.93-.97-.86-2.51-.7-3.44-1.32,.2-2.43,.01-3.3-.56-1.04-.69-1.69-1.9-1.94-3.59-.18-1.22-.11-2.48,.22-3.75,.71-2.79,.61-4.77,.45-5.82l-8.86,10.13c-.18,.21-.5,.23-.71,.05-.21-.18-.23-.5-.05-.71l9.5-10.86c.12-.13,.29-.19,.46-.16,.17,.03,.32,.15,.38,.31,.04,.11,.98,2.65-.21,7.31-.29,1.14-.36,2.27-.2,3.35,.21,1.4,.71,2.38,1.51,2.91,.79,.53,1.89,.62,3.28,.27,.17-.04,.36,.01,.49,.14,.12,.13,.17,.32,.11,.49-.19,.62-.52,2.41,.28,3.24,.74,.77,2.29,.54,3.45,.22,.14-.04,.3-.01,.42,.07,.12,.09,.2,.22,.21,.37,0,.03,.26,2.94,1.96,3.69,1.12,.49,2.68-.02,4.64-1.54,.22-.17,.53-.13,.7,.09,.17,.22,.13,.53-.09,.7-1.66,1.28-3.12,1.92-4.36,1.92Z" fill="#002346"></path>
  <g>
    <path d="M592.48,189.25s-.1,0-.15-.02c-.26-.08-.41-.36-.33-.63l1.98-6.28c.08-.26,.37-.41,.63-.33,.26,.08,.41,.36,.33,.63l-1.98,6.28c-.07,.21-.26,.35-.48,.35Z" fill="#002346"></path>
    <path d="M597.22,193.39s-.09,0-.14-.02c-.27-.08-.42-.35-.34-.62l2.13-7.44c.08-.27,.35-.42,.62-.34,.27,.08,.42,.35,.34,.62l-2.13,7.44c-.06,.22-.26,.36-.48,.36Z" fill="#002346"></path>
  </g>
  <g>
    <path d="M466.89,187.09c-2.69,.37-4-6.71-4-6.71-2.69,.24-8.06,4.27-8.06,4.27,0,0,.49,40.05,5.37,38.95,0,0,2.69,1.22,8.06-12.09l13.07-24.17s-6.93-3-10.43-3.68c-.62,1.16-1.48,2.18-2.51,3-.29,.17-.6,.28-.92,.35-.19,.05-.38,.07-.58,.08Z" fill="#fff"></path>
    <path d="M460.39,224.13c-.08,0-.15,0-.21-.02-.3,.03-.69,0-1.11-.33-4.19-3.31-4.7-35.46-4.74-39.12v-.25s.2-.15,.2-.15c.22-.17,5.52-4.12,8.32-4.37l.45-.04,.08,.45c.32,1.71,1.62,6.57,3.44,6.31h.05c.16,0,.32-.03,.48-.07,.29-.06,.55-.16,.79-.3,.92-.74,1.73-1.7,2.32-2.81l.17-.32,.36,.07c3.51,.68,10.25,3.59,10.53,3.71l.5,.22-13.33,24.65c-3.64,9.04-6.16,11.65-7.63,12.24-.28,.11-.5,.14-.68,.14Zm-.14-1.05l.15,.07s2.48,.34,7.39-11.82l12.83-23.74c-1.58-.67-6.54-2.71-9.47-3.36-.64,1.09-1.46,2.04-2.46,2.83-.39,.23-.75,.37-1.13,.45-.2,.05-.42,.08-.64,.09-2.72,.31-4.06-4.91-4.44-6.64-2.32,.51-6.23,3.28-7.16,3.95,.13,9.99,1.16,35.56,4.36,38.09,.18,.15,.31,.14,.4,.12l.16-.04Z" fill="#002346"></path>
  </g>
  <g>
    <path d="M485.88,165.31l-14.48,17.61c-.76,1.43-1.78,2.71-3,3.77-.86,.71-2.12,.67-2.93-.11-3.78-3.79-3.87-19.62-3.78-25.09,.96,.16,1.94,.25,2.92,.25,7.27,0,13.74-4.43,18-11.39,.06,5.16,1.18,10.25,3.27,14.96Z" fill="#f2b3c1"></path>
    <path d="M466.99,187.7c-.68,0-1.35-.25-1.87-.76-3.87-3.88-4.04-19.1-3.93-25.46v-.58s.58,.1,.58,.1c.93,.16,1.89,.24,2.84,.24,6.83,0,13.23-4.06,17.57-11.15l.91-1.48,.02,1.73c.06,5.12,1.15,10.09,3.23,14.76l.12,.28-14.64,17.81c-.79,1.47-1.83,2.77-3.09,3.87-.51,.42-1.12,.63-1.73,.63Zm-4.81-25.62c-.07,5.45,.08,20.59,3.64,24.16,.62,.59,1.59,.63,2.26,.08,1.17-1.02,2.15-2.24,2.88-3.62l.06-.08,14.28-17.37c-1.84-4.23-2.89-8.68-3.14-13.27-4.49,6.55-10.82,10.28-17.55,10.28-.81,0-1.63-.06-2.43-.17Z" fill="#002346"></path>
  </g>
  <g>
    <path d="M470.87,183.66s14.66,4.05,17.63,8.17l3.14-22.12s.7-4-5.76-4.4l-15.01,18.35Z" fill="#4f32f1"></path>
    <path d="M488.82,193.13l-.73-1.01c-2.83-3.93-17.21-7.94-17.36-7.98l-.74-.21,15.66-19.14,.26,.02c2.58,.16,4.4,.89,5.42,2.18,1.05,1.33,.81,2.74,.8,2.8l-3.31,23.33Zm-17.08-9.74c2.83,.83,12.81,3.91,16.42,7.31l2.99-21.06c0-.06,.16-1.07-.62-2.04-.8-1.01-2.29-1.6-4.43-1.77l-14.36,17.56Z" fill="#002346"></path>
  </g>
  <g>
    <path d="M448.7,191.12s7.57-9.65,14.16-10.74c0,0-1.71-10.51-1.22-13.92,0,0-9.89,3.66-12.94,24.66Z" fill="#4f32f1"></path>
    <path d="M447.93,192.91l.27-1.86c3.06-21.05,12.85-24.9,13.26-25.06l.79-.29-.12,.83c-.47,3.29,1.2,13.66,1.22,13.77l.08,.49-.49,.08c-6.32,1.05-13.77,10.46-13.85,10.55l-1.16,1.47Zm13.13-25.59c-2.24,1.32-8.9,6.46-11.59,22.1,2.33-2.67,7.73-8.3,12.81-9.43-.3-1.94-1.37-9.1-1.22-12.67Z" fill="#002346"></path>
  </g>
  <g>
    <rect x="441.59" y="99.09" width="46" height="62.5" rx="22.55" ry="22.55" fill="#f2b3c1"></rect>
    <path d="M465.04,162.09h-.89c-12.71,0-23.05-10.34-23.05-23.05v-17.39c0-12.71,10.34-23.05,23.05-23.05h.89c12.71,0,23.05,10.34,23.05,23.05v17.39c0,12.71-10.34,23.05-23.05,23.05Zm-.89-62.5c-12.16,0-22.05,9.89-22.05,22.05v17.39c0,12.16,9.89,22.05,22.05,22.05h.89c12.16,0,22.05-9.89,22.05-22.05v-17.39c0-12.16-9.89-22.05-22.05-22.05h-.89Z" fill="#002346"></path>
  </g>
  <g>
    <path d="M497.86,135.68c-.93,1.4-2.06,2.66-3.35,3.74l-8.11-5.58s-2.79-12.18-18-13.44c.19,2.39,2.16,4.26,4.56,4.31,0,0-5.49,1.75-11.36-4.33-1.35-1.48-3.12-2.49-5.08-2.9-2-.39-4.37-.14-5.63,2.4,0,0-3.83,5.67-9.34,4.8,0,0-.38,4.41-.3,5.86h-.06c-.68-.45-6.43-4.57-5.63-11.41h0c.39-3.14,2.15-6.88,6.45-11.1,0,0-2.29-12.68,13.69-18,0,0,24.87-7.87,26.39,3.8,0,0,19-.77,20.55,16.48-.05-.07,1.95,15.55-4.78,25.37Z" fill="#002346"></path>
    <path d="M494.54,140.05l-8.58-5.91-.04-.19c-.11-.48-2.82-11.51-16.92-13,.42,1.85,2.03,3.21,3.98,3.25l2.99,.07-2.85,.91c-.24,.08-5.86,1.77-11.87-4.46-1.29-1.42-2.96-2.37-4.82-2.76-2.42-.47-4.14,.24-5.08,2.13-.19,.29-3.87,5.63-9.33,5.14-.1,1.2-.32,4.16-.26,5.27l.03,.53h-.68l-.18-.08c-.27-.18-6.71-4.52-5.85-11.88,.46-3.67,2.61-7.44,6.42-11.22-.21-1.9-.84-13.33,14.06-18.29,.69-.22,16.87-5.26,23.91-.78,1.68,1.07,2.71,2.6,3.07,4.55,2.92,.03,19.18,.92,20.62,16.94l.04,.39h0c.35,4.02,.91,16.83-4.9,25.31-.96,1.44-2.12,2.73-3.44,3.84l-.29,.24Zm-7.7-6.51l7.64,5.26c1.14-.99,2.13-2.13,2.97-3.39h0c5.71-8.34,5.05-21.12,4.71-24.84,0-.07-.01-.14-.01-.21h0c-1.49-16.57-19.27-16.05-20.03-16.03l-.46,.02-.06-.45c-.24-1.88-1.12-3.28-2.68-4.27-6.64-4.24-22.9,.83-23.06,.88-15.38,5.12-13.37,17.31-13.35,17.43l.05,.26-.19,.18c-3.75,3.68-5.87,7.32-6.3,10.81-.63,5.42,3.07,9.07,4.69,10.39,.04-1.85,.29-4.79,.31-4.94l.05-.53,.53,.08c5.14,.82,8.81-4.53,8.85-4.59,1.1-2.22,3.29-3.16,6.14-2.61,2.08,.43,3.93,1.49,5.35,3.05,3.24,3.35,6.31,4.24,8.36,4.39-1.35-.84-2.29-2.29-2.42-3.99l-.05-.59,.59,.05c14.33,1.19,17.94,12.03,18.39,13.63Z" fill="#002346"></path>
  </g>
  <g>
    <ellipse cx="488.39" cy="140.92" rx="7.86" ry="6.09" transform="translate(201.76 560.71) rotate(-71.77)" fill="#f2b3c1"></ellipse>
    <path d="M487.45,149.13c-.57,0-1.13-.09-1.68-.27-1.7-.56-3-1.92-3.68-3.84-.67-1.87-.65-4.06,.04-6.16,1.44-4.38,5.42-7.01,8.87-5.88,3.45,1.14,5.08,5.62,3.64,10-.69,2.1-1.98,3.87-3.63,4.98-1.15,.77-2.37,1.17-3.57,1.17Zm1.89-15.42c-2.56,0-5.18,2.19-6.26,5.46h0c-.62,1.89-.64,3.85-.05,5.51,.58,1.62,1.66,2.77,3.05,3.23,1.4,.46,2.95,.18,4.37-.78,1.47-.99,2.62-2.57,3.24-4.46,1.27-3.86-.08-7.78-3.01-8.74-.44-.15-.9-.22-1.36-.22Z" fill="#002346"></path>
  </g>
  <g>
    <path d="M394.66,235.04l21.14,66.58,47.46-4.67-21.64-63.94-46.37,1.21c-.42,.01-.71,.42-.58,.82Z" fill="#fff"></path>
    <path d="M415.44,302.16l-.12-.39-21.14-66.58c-.11-.34-.05-.71,.16-1,.21-.29,.53-.46,.89-.47l46.74-1.22,21.96,64.88-.63,.06-47.86,4.71Zm-20.3-67.27l21.01,66.19,46.43-4.57-21.32-62.99-46,1.2c-.05,0-.09,.03-.1,.05-.02,.02-.04,.06-.02,.12h0Z" fill="#002346"></path>
  </g>
  <g>
    <path d="M444.82,230.3l21.39,64.43-2.95,2.22-21.64-63.94-46.84,1.22c-.09,0-.12-.12-.04-.16l4.83-2.54,45.25-1.23Z" fill="#e6e7e8"></path>
    <path d="M463.01,297.77l-21.74-64.25-46.47,1.21c-.24,.01-.51-.17-.58-.44s.05-.54,.29-.67l4.93-2.59h.12s45.62-1.24,45.62-1.24l21.62,65.12-3.79,2.85Zm-21.03-65.26l21.54,63.63,2.11-1.59-21.16-63.74-44.76,1.22-3.16,1.66,45.43-1.18Zm-47.2,1.23h0Z" fill="#002346"></path>
  </g>
  <g>
    <ellipse cx="424.73" cy="263.01" rx="8.45" ry="8.31" fill="#4f32f1"></ellipse>
    <path d="M424.73,271.82c-4.94,0-8.95-3.95-8.95-8.81s4.01-8.81,8.95-8.81,8.95,3.95,8.95,8.81-4.01,8.81-8.95,8.81Zm0-16.62c-4.38,0-7.95,3.5-7.95,7.81s3.57,7.81,7.95,7.81,7.95-3.5,7.95-7.81-3.57-7.81-7.95-7.81Z" fill="#002346"></path>
  </g>
  <g>
    <path d="M410.59,268.96c.68,.2,1.28,.6,1.71,1.16,.5,.63,.39,1.55-.25,2.05-.28,.22-.62,.33-.97,.31-1.44-.17-2.85-.55-4.18-1.13-.25-.11-.51-.19-.78-.23-1.32-.18-5.68-1.24-5.47-7,.04-.73-.22-1.45-.71-2-1.29-1.44-3.75-4.5-4.31-7.54-.38-2.65,1.46-5.11,4.12-5.49,.36-.05,.72-.06,1.07-.03l9.29,.59c.99,.02,1.79,.84,1.77,1.83-.02,.99-.84,1.79-1.83,1.77l-3.27,.09c-.37,.07-.67,.33-.78,.69-.07,.48,.21,.95,.67,1.1h3.69c.97,.02,1.74,.8,1.74,1.77h0c0,.89-.67,1.64-1.56,1.75l-1.61,.19c-.88,.1-1.51,.89-1.41,1.77,0,.04,.01,.09,.02,.13h0c.14,.76,.8,1.32,1.58,1.32h2c1.12,0,2.03,.88,2.07,2h0c.04,1.12-.83,2.08-1.95,2.14l-2.22,.13c-.41,.02-.72,.38-.69,.78,0,.04,0,.07,.01,.11,0,0-.26,1.01,2.25,1.74Z" fill="#f2b3c1"></path>
    <path d="M411.15,272.98s-.07,0-.1,0c-1.52-.18-2.98-.57-4.35-1.17-.21-.1-.43-.16-.66-.2-1.02-.14-6.13-1.16-5.89-7.51,.03-.61-.18-1.19-.58-1.65-1.41-1.57-3.86-4.67-4.43-7.78-.21-1.43,.16-2.84,1.01-3.99,.86-1.14,2.11-1.88,3.52-2.09,.39-.06,.79-.07,1.19-.04l9.28,.59c1.25,.02,2.26,1.07,2.24,2.34-.01,.61-.26,1.19-.7,1.61-.44,.43-1.02,.65-1.64,.65l-3.25,.09c-.11,.03-.26,.16-.32,.34-.02,.15,.09,.36,.29,.45h3.59c1.24,.02,2.24,1.04,2.24,2.27,0,1.15-.87,2.11-2,2.25l-1.61,.19c-.6,.07-1.04,.61-.97,1.22,.11,.62,.57,1,1.1,1.01h2c1.39,0,2.52,1.09,2.57,2.48,.05,1.38-1.04,2.58-2.42,2.66l-2.22,.13c-.09,0-.14,.05-.16,.08-.03,.03-.07,.09-.06,.17l.02,.11-.02,.15s0,0,0,0c0,0,.09,.61,1.9,1.14h0c.78,.23,1.46,.69,1.96,1.33,.67,.85,.52,2.08-.33,2.75-.35,.27-.77,.42-1.21,.42Zm-10.72-23.44c-.21,0-.41,.01-.62,.04-1.15,.16-2.17,.77-2.87,1.7-.7,.93-.99,2.07-.83,3.22,.53,2.85,2.85,5.78,4.19,7.28,.58,.65,.88,1.49,.84,2.36-.19,5.35,3.81,6.31,5.04,6.48,.32,.05,.63,.14,.92,.27,1.28,.56,2.64,.92,4.03,1.09,.21,0,.42-.06,.61-.21,.42-.33,.49-.93,.16-1.35-.37-.48-.88-.82-1.46-.99-2.48-.72-2.64-1.82-2.62-2.21,0-.03,0-.06,0-.09-.02-.33,.09-.65,.31-.89s.52-.4,.85-.42l2.22-.13c.85-.05,1.51-.78,1.48-1.62-.03-.85-.72-1.52-1.57-1.52h-2c-1.02,0-1.89-.73-2.07-1.73,0-.05-.02-.11-.03-.16-.13-1.15,.7-2.19,1.85-2.32l1.61-.19c.63-.08,1.12-.62,1.12-1.26,0-.69-.56-1.26-1.25-1.27l-3.84-.03c-.69-.23-1.12-.93-1-1.65,.18-.61,.63-1.01,1.19-1.11l3.34-.1h.02c.73,0,1.31-.57,1.32-1.28,0-.35-.12-.68-.37-.92-.24-.25-.57-.39-.91-.4l-9.31-.59c-.12,0-.24-.01-.36-.01Z" fill="#002346"></path>
  </g>
  <g>
    <rect x="574.7" y="56.29" width="196.68" height="289.95" fill="#fff"></rect>
    <path d="M771.88,346.74h-197.68V55.79h197.68V346.74Zm-196.68-1h195.68V56.79h-195.68V345.74Z" fill="#002346"></path>
  </g>
  <g>
    <rect x="185.68" y="167.55" width="7.81" height="7.81" fill="#ffdd00"></rect>
    <path d="M193.99,175.86h-8.81v-8.81h8.81v8.81Zm-7.81-1h6.81v-6.81h-6.81v6.81Z" fill="#002346"></path>
  </g>
  <g>
    <rect x="185.68" y="184.59" width="7.81" height="7.81" fill="#ffdd00"></rect>
    <path d="M193.99,192.9h-8.81v-8.81h8.81v8.81Zm-7.81-1h6.81v-6.81h-6.81v6.81Z" fill="#002346"></path>
  </g>
  <g>
    <rect x="185.68" y="201.63" width="7.81" height="7.81" fill="#ffdd00"></rect>
    <path d="M193.99,209.94h-8.81v-8.81h8.81v8.81Zm-7.81-1h6.81v-6.81h-6.81v6.81Z" fill="#002346"></path>
  </g>
  <g>
    <rect x="185.68" y="218.69" width="7.81" height="7.81" fill="#ffdd00"></rect>
    <path d="M193.99,227h-8.81v-8.81h8.81v8.81Zm-7.81-1h6.81v-6.81h-6.81v6.81Z" fill="#002346"></path>
  </g>
  <g>
    <circle cx="265.54" cy="397.4" r="63" fill="#fff"></circle>
    <path d="M265.54,460.9c-35.01,0-63.5-28.49-63.5-63.5s28.49-63.5,63.5-63.5,63.5,28.49,63.5,63.5-28.49,63.5-63.5,63.5Zm0-126c-34.46,0-62.5,28.04-62.5,62.5s28.04,62.5,62.5,62.5,62.5-28.04,62.5-62.5-28.04-62.5-62.5-62.5Z" fill="#002346"></path>
  </g>
  <g>
    <path d="M251.59,355.59c5.83-8.82,15.84-13.96,26.41-13.54,18.23,.59,22.65,20.55,22,26.42-.29,3.37-1.19,6.67-2.66,9.72l-7.94-6.77c5.47,5.44,9.72,11.97,12.47,19.17,4.4,11.74,2.29,27-3.3,30.53-5.59,3.53-9.41,2.06-9.41,2.06l.59-7.95s-5.29,9.41-14.11,11.17c-8.82,1.76-34.11,2.94-37.94-1.46-2.31-2.71-3.92-5.94-4.7-9.41l-.58,7.65s-7.94-5.88-8.24-12.66c-.3-6.78,3.82-16.14,5.87-21.16,2.05-5.02,3.53-7.65,4.11-15.3,.58-7.65-.29-11.74,5-16.76,5.29-5.02,12.43-1.71,12.43-1.71Z" fill="#002346"></path>
    <path d="M255.17,428.49c-8.11,0-15.74-.81-17.84-3.22-1.75-2.05-3.12-4.42-4.03-6.96l-.44,5.81-.73-.54c-.33-.25-8.13-6.1-8.44-13.04-.28-6.37,3.27-14.99,5.4-20.14l.51-1.23c.26-.63,.51-1.23,.75-1.8,1.64-3.91,2.83-6.74,3.33-13.35,.1-1.32,.16-2.54,.21-3.67,.26-5.5,.43-9.13,4.95-13.42,4.74-4.5,10.96-2.58,12.58-1.96,5.92-8.71,16.11-13.84,26.62-13.42,6.3,.2,11.54,2.67,15.57,7.32,5.5,6.34,7.37,15.48,6.91,19.66-.29,3.44-1.21,6.76-2.71,9.88l-.28,.58-3.04-2.59c3.29,4.24,5.92,8.93,7.87,14.01,4.34,11.59,2.58,27.29-3.5,31.13-5.74,3.62-9.69,2.17-9.86,2.1l-.35-.13,.47-6.36c-1.99,2.84-6.65,8.39-13.37,9.74-4.03,.8-12.54,1.6-20.57,1.6Zm-22.41-16.33l.73,3.27c.76,3.38,2.35,6.56,4.59,9.2,3.62,4.16,28.73,3.03,37.46,1.29,8.49-1.69,13.72-10.83,13.77-10.92l1.1-1.95-.72,9.78c1.03,.24,4.27,.63,8.61-2.11,5.1-3.22,7.58-17.96,3.1-29.93-2.75-7.18-6.9-13.57-12.35-18.99l.68-.74,7.44,6.34c1.28-2.84,2.07-5.85,2.34-8.96,.35-3.12-.86-12.19-6.67-18.9-3.84-4.43-8.84-6.78-14.85-6.97-10.31-.43-20.28,4.69-25.98,13.32l-.24,.36-.39-.18c-.07-.03-6.9-3.1-11.88,1.62-4.23,4.01-4.38,7.29-4.63,12.74-.05,1.14-.11,2.37-.21,3.7-.51,6.77-1.73,9.66-3.4,13.66-.24,.57-.49,1.16-.74,1.79l-.51,1.24c-2.09,5.07-5.6,13.57-5.33,19.71,.23,5.27,5.38,10.07,7.31,11.7l.76-10.04Z" fill="#002346"></path>
  </g>
  <g>
    <path d="M239.33,435.8c-4.87,2.1-12.75,4-18.11,6.35,24.47,24.23,63.86,24.32,88.44,.21-2.06-1.01-4.22-1.81-6.44-2.38-9.42-2.61-22.81-10.27-24.38-12.89-1.57-2.62-3.11-11.74-3.11-11.74l-21.77-2.93s1.09,11.39,1.09,13.49-8.38,6.75-15.72,9.89Z" fill="#f2b3c1"></path>
    <path d="M265.55,460.88h-.15c-16.79-.04-32.6-6.57-44.53-18.38l-.52-.52,.67-.3c2.81-1.23,6.3-2.34,9.67-3.41,3.15-1,6.12-1.94,8.44-2.94h0c8.36-3.58,15.42-7.9,15.42-9.43,0-2.05-1.08-13.33-1.09-13.44l-.06-.63,22.76,3.06,.06,.36c.01,.09,1.54,9.06,3.04,11.57,1.5,2.5,14.78,10.09,24.08,12.67,2.24,.58,4.44,1.39,6.53,2.41l.63,.31-.5,.5c-11.95,11.72-27.73,18.17-44.46,18.17Zm-43.45-18.57c24,23.21,62.59,23.29,86.69,.19-1.83-.85-3.74-1.54-5.7-2.04-9.16-2.54-22.94-10.21-24.68-13.12-1.44-2.4-2.8-9.8-3.11-11.55l-20.78-2.8c.23,2.44,1.03,11.07,1.03,12.91,0,2.76-10.48,7.98-16.02,10.35h0c-2.36,1.02-5.36,1.97-8.54,2.98-3.08,.98-6.25,1.98-8.89,3.08Z" fill="#002346"></path>
  </g>
  <g>
    <path d="M289.29,434.18l-22.81,21.62-22.1-22.34c-1.66,.83-3.38,1.62-5,2.34-4.87,2.1-12.75,4-18.11,6.35,24.47,24.23,63.86,24.32,88.44,.21-2.06-1.01-4.22-1.81-6.44-2.38-4.85-1.45-9.53-3.39-13.98-5.8Z" fill="#4f32f1"></path>
    <path d="M265.6,460.88h-.15c-16.79-.04-32.6-6.57-44.53-18.38l-.52-.52,.67-.3c2.81-1.23,6.3-2.34,9.67-3.41,3.15-1,6.12-1.94,8.44-2.94,1.93-.86,3.56-1.62,4.97-2.33l.32-.16,22.01,22.25,22.72-21.53,.32,.17c4.41,2.38,9.08,4.32,13.89,5.76,2.23,.57,4.43,1.38,6.52,2.41l.63,.31-.5,.5c-11.95,11.72-27.73,18.17-44.46,18.17Zm-43.45-18.57c24.01,23.21,62.59,23.29,86.69,.19-1.83-.85-3.74-1.54-5.7-2.04-4.77-1.43-9.4-3.33-13.77-5.67l-22.9,21.71-22.19-22.43c-1.35,.67-2.89,1.39-4.7,2.19-2.37,1.02-5.37,1.97-8.54,2.98-3.08,.98-6.25,1.98-8.89,3.08Z" fill="#002346"></path>
  </g>
  <g>
    <circle cx="668.8" cy="148.07" r="63" fill="#fff"></circle>
    <path d="M668.8,211.57c-35.01,0-63.5-28.49-63.5-63.5s28.49-63.5,63.5-63.5,63.5,28.49,63.5,63.5-28.49,63.5-63.5,63.5Zm0-126c-34.46,0-62.5,28.04-62.5,62.5s28.04,62.5,62.5,62.5,62.5-28.04,62.5-62.5-28.04-62.5-62.5-62.5Z" fill="#002346"></path>
  </g>
  <g>
    <path d="M636.01,175.72l-15.71,12.57c22.2,26.76,61.88,30.47,88.66,8.3,2.71-2.24,5.22-4.7,7.51-7.36l-23.81-15.57-56.65,2.06Z" fill="#4f32f1"></path>
    <path d="M668.84,211.53c-18.26,0-36.39-7.81-48.93-22.92l-.33-.39,16.24-12.99,56.97-2.07,24.42,15.97-.37,.43c-2.3,2.67-4.85,5.17-7.57,7.42-11.82,9.78-26.17,14.55-40.44,14.55Zm-47.83-23.17c22.04,26.14,61.24,29.69,87.63,7.84,2.53-2.09,4.91-4.4,7.08-6.87l-23.2-15.17-56.33,2.05-15.18,12.15Z" fill="#002346"></path>
  </g>
  <g>
    <path d="M655.72,157.93s-13.84,1.8-17.7,7.43c-3.86,5.63-6.67,11-3.85,14.37,4.67,5.04,9.83,9.59,15.42,13.59,4.61,3.08,11.81,13.61,11.81,13.61,.57-4.43,.91-8.88,1-13.34,0-5.65-4.88-11.75-5.87-16.94-.99-5.19,7.44-13.33,13.32-10.78,5.88,2.55,10.53,10.28,10.28,13.86s1,8,2.3,14.11c1.3,6.11,2.31,11.43,2.31,11.43,0,0,8.71-8.81,11.55-18.36,2.84-9.55,1.46-19.23-9-25.64-10.46-6.41-31.57-3.34-31.57-3.34Z" fill="#ffdd00"></path>
    <path d="M661.73,208.3l-.74-1.08c-.07-.1-7.2-10.49-11.67-13.48-5.62-4.02-10.83-8.61-15.51-13.67-3.13-3.74-.02-9.41,3.81-14.99,3.93-5.74,17.42-7.56,18.04-7.64,.92-.13,21.42-3.01,31.9,3.41,11.89,7.29,11.58,18.28,9.22,26.21-2.84,9.56-11.31,18.21-11.67,18.57l-.67,.68-.18-.94c0-.05-1.02-5.38-2.31-11.42-.26-1.22-.52-2.37-.76-3.46-.98-4.39-1.75-7.85-1.55-10.79,.24-3.38-4.24-10.88-9.98-13.37-2.32-1.01-5.41-.25-8.26,2.03-3.03,2.43-4.83,5.8-4.37,8.2,.41,2.15,1.5,4.45,2.66,6.9,1.58,3.33,3.22,6.78,3.22,10.14-.09,4.47-.43,8.98-1,13.4l-.17,1.3Zm5.41-50.59c-6.26,0-11.25,.7-11.35,.72h0c-.14,.02-13.66,1.84-17.35,7.22-3.43,5-6.57,10.55-3.88,13.77,4.62,4.99,9.78,9.54,15.33,13.5,3.8,2.54,9.21,9.88,11.18,12.66,.47-3.98,.75-8.01,.84-12,0-3.12-1.59-6.46-3.12-9.7-1.19-2.5-2.31-4.87-2.74-7.14-.52-2.75,1.42-6.52,4.73-9.17,3.14-2.51,6.61-3.32,9.28-2.17,6.21,2.69,10.84,10.61,10.58,14.35-.2,2.79,.56,6.19,1.53,10.5,.25,1.09,.5,2.25,.76,3.47,.96,4.53,1.78,8.67,2.13,10.48,2.07-2.26,8.45-9.66,10.76-17.45,2.26-7.6,2.57-18.11-8.78-25.07-5.23-3.21-13.27-3.99-19.89-3.99Z" fill="#002346"></path>
  </g>
  <g>
    <path d="M653.41,147.92s1.55,18.47,2.06,23.61c.51,5.14,3.33,18.21,12,20.76,8.67,2.55,13.85-7.42,12.58-14.86-1.27-7.44-3.58-14.37-3.58-16.94,.06-1.12-.03-2.24-.27-3.33l-22.79-9.24Z" fill="#f2b3c1"></path>
    <path d="M670.19,193.2c-.93,0-1.89-.14-2.86-.43-8.33-2.45-11.69-14.47-12.36-21.19-.5-5.08-2.04-23.43-2.06-23.62l-.07-.81,23.79,9.64,.06,.26c.25,1.14,.34,2.3,.28,3.46,0,1.23,.6,3.67,1.36,6.75,.71,2.87,1.59,6.45,2.21,10.08,.84,4.91-.97,10.46-4.39,13.51-1.75,1.56-3.77,2.35-5.96,2.35Zm-16.21-44.51c.31,3.62,1.55,18.33,1.99,22.79,.64,6.47,3.82,18.03,11.64,20.33,3.7,1.09,6.32-.33,7.88-1.71,3.13-2.78,4.84-8.08,4.07-12.59-.61-3.6-1.49-7.15-2.2-10.01-.78-3.15-1.39-5.63-1.39-7.02,.05-1.01-.01-2-.21-2.97l-21.79-8.83Z" fill="#002346"></path>
  </g>
  <g>
    <path d="M681.65,113.34s4.1,22.55,4.1,26.66-3.76,16.06-5.46,18.79c-1.7,2.73-10.28,4.4-13.67,3.06s-13-10.27-15-14c-1.23-2.26-2.15-4.67-2.73-7.18,0,0-4.79,2.06-8.54-3.42s-1.71-10.58,2-10.92l3.42,1s-6.15-10.59-4.11-15.37,26.66-6.49,31.78-6.49,8.21,7.87,8.21,7.87Z" fill="#f2b3c1"></path>
    <path d="M669.85,162.82c-1.34,0-2.54-.16-3.42-.51-3.53-1.39-13.22-10.44-15.26-14.23-1.17-2.14-2.06-4.42-2.65-6.78-1.44,.38-5.42,.87-8.59-3.77-2.1-3.07-2.65-6.4-1.48-8.9,.76-1.63,2.17-2.65,3.84-2.8h.09s2.35,.68,2.35,.68c-1.52-2.86-5.29-10.66-3.55-14.75,2.29-5.36,28.76-6.79,32.24-6.79,5.4,0,8.54,7.85,8.68,8.19l.03,.09c.17,.92,4.11,22.64,4.11,26.75s-3.84,16.34-5.54,19.05c-1.41,2.27-6.78,3.77-10.86,3.77Zm-20.61-22.84l.14,.58c.57,2.46,1.47,4.84,2.68,7.05,1.92,3.58,11.43,12.46,14.74,13.77,3.38,1.33,11.56-.45,13.06-2.86,1.6-2.57,5.38-14.49,5.38-18.53s-3.87-25.32-4.08-26.52c-.25-.61-3.2-7.51-7.73-7.51-5.88,0-29.5,1.92-31.32,6.19-1.92,4.49,4.02,14.82,4.08,14.92l.63,1.08-4.53-1.32c-1.28,.15-2.34,.95-2.94,2.22-1.02,2.18-.5,5.13,1.4,7.91,3.46,5.05,7.75,3.32,7.93,3.24l.55-.23Z" fill="#002346"></path>
  </g>
  <g>
    <path d="M640.31,98.65s-8.81,8.81-5.46,16.41c3.35,7.6,12,21.5,12,21.5h1.7l-.34-5.87s5.46-2,4.41-6.82c-.59-2.83-1.75-5.51-3.41-7.87,0,0,5.87,4.4,12.64,3.42,6.77-.98,9.91-9.22,12.3-6.49,2.39,2.73,6.15,4.41,13.31,.68,7.16-3.73,11.74-16.48,3.91-21.61-7.83-5.13-15.18-.58-19.28,.43-4.1,1.01-7.17-5.87-16.39-3.07-5.79,1.84-11.07,5.02-15.39,9.29Z" fill="#002346"></path>
    <path d="M649.08,137.06h-2.51l-.15-.24c-.09-.14-8.71-14.02-12.03-21.56-3.45-7.82,5.19-16.6,5.56-16.97h0c4.36-4.31,9.75-7.56,15.59-9.41,5.82-1.77,9.25,.17,12.01,1.72,1.68,.94,3,1.69,4.41,1.34,.77-.19,1.66-.51,2.69-.88,4.17-1.5,10.47-3.75,16.99,.51,2.97,1.95,4.5,5.16,4.3,9.04-.27,5.34-3.82,11.11-8.25,13.43-6.11,3.18-10.66,2.92-13.92-.79-.29-.33-.51-.37-.65-.38-.01,0-.02,0-.03,0-.72,0-1.77,1-2.97,2.14-1.93,1.84-4.58,4.37-8.2,4.89-4.64,.67-8.82-1.07-11.13-2.34,1.08,1.93,1.86,4,2.32,6.19,.97,4.43-3.14,6.67-4.38,7.24l.35,6.05Zm-1.95-1h.89l-.33-5.71,.35-.13c.21-.08,5.04-1.91,4.09-6.24-.58-2.78-1.7-5.37-3.33-7.69l-1.8-2.56,2.5,1.87c.06,.04,5.8,4.27,12.27,3.33,3.3-.48,5.71-2.78,7.65-4.63,1.45-1.38,2.56-2.48,3.74-2.42,.5,.02,.96,.26,1.36,.72,1.85,2.12,5.19,4.48,12.7,.57,4.15-2.16,7.47-7.57,7.72-12.59,.12-2.49-.44-5.93-3.85-8.16-6.1-4-11.88-1.92-16.1-.41-1.05,.38-1.96,.71-2.79,.91-1.79,.44-3.35-.43-5.14-1.44-2.59-1.46-5.82-3.28-11.22-1.64-5.68,1.8-10.94,4.97-15.18,9.17-.14,.14-8.52,8.68-5.35,15.85,3.06,6.94,10.67,19.34,11.82,21.2Z" fill="#002346"></path>
  </g>
  <g>
    <path d="M248.39,387.08s1.76-13.21,5.87-20.29c4.11-7.08,12.94-5,16.47-2.65s9.11,15,12.31,23.22c3.2,8.22,4.7,12.93,4.7,12.93,0,0-5.08,10.72-12,15-7.34,4.58-15.44,4.4-21.77-2.94-2.18-2.56-3.96-5.42-5.28-8.51,0,0-7.34-2.36-9.11-8.53-1.77-6.17-.3-9.42,2.64-10.27,2.94-.85,6.17,2.04,6.17,2.04Z" fill="#f2b3c1"></path>
    <path d="M265.98,418.88c-4.57,0-8.84-2.09-12.39-6.2-2.17-2.54-3.94-5.38-5.27-8.43-1.28-.46-7.55-2.97-9.22-8.79-2.4-8.36,1.29-10.4,2.98-10.89,2.34-.68,4.77,.75,5.94,1.59,.47-3.08,2.26-13.49,5.81-19.61,1.48-2.54,3.64-4.16,6.42-4.81,3.95-.92,8.35,.39,10.76,1.99,4.22,2.81,10.63,18.66,12.5,23.45,3.17,8.14,4.7,12.91,4.71,12.96l.06,.19-.08,.18c-.21,.44-5.22,10.9-12.19,15.21-3.39,2.12-6.78,3.17-10.02,3.17Zm-22.62-33.5c-.33,0-.67,.04-1,.14-2.97,.86-3.81,4.38-2.3,9.65,1.67,5.83,8.71,8.17,8.78,8.19l.22,.07,.09,.21c1.3,3.04,3.05,5.86,5.2,8.38,5.71,6.62,13.41,7.65,21.12,2.84,6.23-3.86,11.03-13.21,11.73-14.61-.31-.96-1.82-5.51-4.63-12.71-3.62-9.29-8.96-20.88-12.12-22.99-2.31-1.54-6.48-2.67-9.98-1.85-2.5,.58-4.45,2.04-5.78,4.34-4.01,6.91-5.79,19.97-5.81,20.11l-.12,.93-.7-.63s-2.35-2.07-4.7-2.07Z" fill="#002346"></path>
  </g>
  <g>
    <rect x="94.93" y="76.96" width="286.21" height="15.58" fill="#ffdd00"></rect>
    <path d="M381.64,93.04H94.43v-16.58H381.64v16.58Zm-286.21-1H380.64v-14.58H95.43v14.58Z" fill="#002346"></path>
  </g>
  <g>
    <path d="M371.78,158.56c4.69-5.17,7.55-12.04,7.55-19.57,0-16.1-13.05-29.15-29.15-29.15s-29.15,13.05-29.15,29.15,13.05,29.15,29.15,29.15c5.95,0,11.49-1.79,16.1-4.85h0s37.46,43.75,37.46,43.75l5.02-3.89-36.98-44.59Z" fill="#ffdd00"></path>
    <path d="M403.67,207.73l-37.48-43.78c-4.78,3.07-10.3,4.69-16.01,4.69-16.35,0-29.65-13.3-29.65-29.65s13.3-29.65,29.65-29.65,29.65,13.3,29.65,29.65c0,7.23-2.62,14.17-7.39,19.58l37.03,44.66-5.8,4.5Zm-37.3-45.1l37.44,43.73,4.23-3.28-36.93-44.52,.29-.32c4.78-5.28,7.42-12.11,7.42-19.24,0-15.8-12.85-28.65-28.65-28.65s-28.65,12.85-28.65,28.65,12.85,28.65,28.65,28.65c5.65,0,11.13-1.65,15.82-4.77l.37-.24Z" fill="#002346"></path>
  </g>
  <g>
    <circle cx="350.18" cy="138.99" r="24" fill="#fff"></circle>
    <path d="M350.18,163.49c-13.51,0-24.5-10.99-24.5-24.5s10.99-24.5,24.5-24.5,24.5,10.99,24.5,24.5-10.99,24.5-24.5,24.5Zm0-48c-12.96,0-23.5,10.54-23.5,23.5s10.54,23.5,23.5,23.5,23.5-10.54,23.5-23.5-10.54-23.5-23.5-23.5Z" fill="#002346"></path>
  </g>
  <g>
    <g>
      <rect x="605.51" y="262.61" width="7.81" height="7.81" fill="#ffdd00"></rect>
      <path d="M613.82,270.92h-8.81v-8.81h8.81v8.81Zm-7.81-1h6.81v-6.81h-6.81v6.81Z" fill="#002346"></path>
    </g>
    <g>
      <rect x="605.51" y="279.67" width="7.81" height="7.81" fill="#ffdd00"></rect>
      <path d="M613.82,287.98h-8.81v-8.81h8.81v8.81Zm-7.81-1h6.81v-6.81h-6.81v6.81Z" fill="#002346"></path>
    </g>
    <g>
      <rect x="605.51" y="296.71" width="7.81" height="7.81" fill="#ffdd00"></rect>
      <path d="M613.82,305.02h-8.81v-8.81h8.81v8.81Zm-7.81-1h6.81v-6.81h-6.81v6.81Z" fill="#002346"></path>
    </g>
    <g>
      <rect x="605.51" y="313.75" width="7.81" height="7.81" fill="#ffdd00"></rect>
      <path d="M613.82,322.06h-8.81v-8.81h8.81v8.81Zm-7.81-1h6.81v-6.81h-6.81v6.81Z" fill="#002346"></path>
    </g>
    <g>
      <path d="M739.4,230.62h-132.73c-.28,0-.5-.22-.5-.5s.22-.5,.5-.5h132.73c.28,0,.5,.22,.5,.5s-.22,.5-.5,.5Z" fill="#002346"></path>
      <path d="M739.4,246.62h-132.73c-.28,0-.5-.22-.5-.5s.22-.5,.5-.5h132.73c.28,0,.5,.22,.5,.5s-.22,.5-.5,.5Z" fill="#002346"></path>
      <path d="M736.28,267.02h-116.57c-.28,0-.5-.22-.5-.5s.22-.5,.5-.5h116.57c.28,0,.5,.22,.5,.5s-.22,.5-.5,.5Z" fill="#002346"></path>
      <path d="M736.28,284.02h-116.57c-.28,0-.5-.22-.5-.5s.22-.5,.5-.5h116.57c.28,0,.5,.22,.5,.5s-.22,.5-.5,.5Z" fill="#002346"></path>
      <path d="M736.28,301.12h-116.57c-.28,0-.5-.22-.5-.5s.22-.5,.5-.5h116.57c.28,0,.5,.22,.5,.5s-.22,.5-.5,.5Z" fill="#002346"></path>
      <path d="M736.28,318.12h-116.57c-.28,0-.5-.22-.5-.5s.22-.5,.5-.5h116.57c.28,0,.5,.22,.5,.5s-.22,.5-.5,.5Z" fill="#002346"></path>
    </g>
  </g>
  <g>
    <g>
      <rect x="202.51" y="518.61" width="7.81" height="7.81" fill="#ffdd00"></rect>
      <path d="M210.82,526.92h-8.81v-8.81h8.81v8.81Zm-7.81-1h6.81v-6.81h-6.81v6.81Z" fill="#002346"></path>
    </g>
    <g>
      <rect x="202.51" y="535.67" width="7.81" height="7.81" fill="#ffdd00"></rect>
      <path d="M210.82,543.98h-8.81v-8.81h8.81v8.81Zm-7.81-1h6.81v-6.81h-6.81v6.81Z" fill="#002346"></path>
    </g>
    <g>
      <rect x="202.51" y="552.71" width="7.81" height="7.81" fill="#ffdd00"></rect>
      <path d="M210.82,561.02h-8.81v-8.81h8.81v8.81Zm-7.81-1h6.81v-6.81h-6.81v6.81Z" fill="#002346"></path>
    </g>
    <g>
      <rect x="202.51" y="569.75" width="7.81" height="7.81" fill="#ffdd00"></rect>
      <path d="M210.82,578.06h-8.81v-8.81h8.81v8.81Zm-7.81-1h6.81v-6.81h-6.81v6.81Z" fill="#002346"></path>
    </g>
    <g>
      <path d="M336.4,486.62H203.67c-.28,0-.5-.22-.5-.5s.22-.5,.5-.5h132.73c.28,0,.5,.22,.5,.5s-.22,.5-.5,.5Z" fill="#002346"></path>
      <path d="M336.4,502.62H203.67c-.28,0-.5-.22-.5-.5s.22-.5,.5-.5h132.73c.28,0,.5,.22,.5,.5s-.22,.5-.5,.5Z" fill="#002346"></path>
      <path d="M333.28,523.02h-116.57c-.28,0-.5-.22-.5-.5s.22-.5,.5-.5h116.57c.28,0,.5,.22,.5,.5s-.22,.5-.5,.5Z" fill="#002346"></path>
      <path d="M333.28,540.02h-116.57c-.28,0-.5-.22-.5-.5s.22-.5,.5-.5h116.57c.28,0,.5,.22,.5,.5s-.22,.5-.5,.5Z" fill="#002346"></path>
      <path d="M333.28,557.12h-116.57c-.28,0-.5-.22-.5-.5s.22-.5,.5-.5h116.57c.28,0,.5,.22,.5,.5s-.22,.5-.5,.5Z" fill="#002346"></path>
      <path d="M333.28,574.12h-116.57c-.28,0-.5-.22-.5-.5s.22-.5,.5-.5h116.57c.28,0,.5,.22,.5,.5s-.22,.5-.5,.5Z" fill="#002346"></path>
    </g>
  </g>
  <path d="M515.41,254.69c-.17,0-.33-.08-.42-.23l-14.11-22.51c-.15-.23-.08-.54,.16-.69,.24-.15,.54-.08,.69,.16l14.11,22.51c.15,.23,.08,.54-.16,.69-.08,.05-.17,.08-.27,.08Z" fill="#002346"></path>
  <path d="M534.59,239.09c-.28,0-.5-.22-.5-.5,0-11.09,9.71-20,10.12-20.37,.2-.18,.52-.17,.71,.04,.18,.2,.17,.52-.04,.71-.1,.09-9.79,8.98-9.79,19.63,0,.28-.22,.5-.5,.5Z" fill="#002346"></path>
  <path d="M459.9,379.88c-.28,0-.5-.22-.5-.5v-33.14c0-.28,.22-.5,.5-.5s.5,.22,.5,.5v33.14c0,.28-.22,.5-.5,.5Z" fill="#002346"></path>
  <path d="M167.25,254.98c-.28,0-.5-.22-.5-.5V92.54c0-.28,.22-.5,.5-.5s.5,.22,.5,.5V254.48c0,.28-.22,.5-.5,.5Z" fill="#002346"></path>
  <g>
    <path d="M133.76,128.08h0c-2.58-.03-4.66-2.15-4.64-4.73,.03-2.58,2.18-4.66,4.73-4.64,2.56,.03,4.64,2.13,4.64,4.69-.03,2.59-2.15,4.69-4.73,4.69Zm.04-8.37c-2.02,0-3.67,1.63-3.69,3.65-.02,2.03,1.62,3.7,3.65,3.72,2.03,0,3.71-1.66,3.72-3.69,0-2.01-1.64-3.66-3.65-3.68h-.04Z" fill="#002346"></path>
    <path d="M133.91,139.71c-2.98,0-5.89-1.02-8.19-2.87l-.25-.2,.08-.31c1.23-5.02,5.38-8.1,9.64-7.16,3.23,.71,5.86,3.64,6.69,7.47l.07,.32-.26,.19c-2.26,1.67-4.95,2.56-7.78,2.56Zm-7.31-3.45c2.08,1.58,4.67,2.45,7.31,2.45,2.5,0,4.89-.75,6.92-2.17-.82-3.3-3.09-5.79-5.85-6.39h0c-3.64-.8-7.19,1.81-8.38,6.11Z" fill="#002346"></path>
    <path d="M133.91,139.71c-2.98,0-5.89-1.02-8.19-2.87-3.14-2.5-4.94-6.24-4.94-10.26,0-7.24,5.89-13.13,13.13-13.13s13.13,5.89,13.13,13.13c0,4.16-2,8.11-5.35,10.57-2.26,1.67-4.95,2.56-7.78,2.56Zm0-25.26c-6.69,0-12.13,5.44-12.13,12.13,0,3.71,1.66,7.17,4.56,9.48,2.13,1.71,4.81,2.65,7.57,2.65s5.1-.82,7.18-2.36c3.1-2.28,4.95-5.93,4.95-9.77,0-6.69-5.44-12.13-12.13-12.13Z" fill="#002346"></path>
  </g>
  <g>
    <path d="M206.62,129.98h0c-4.66-.05-8.42-3.88-8.37-8.54,.02-2.26,.92-4.37,2.54-5.95,1.59-1.56,3.69-2.42,5.91-2.42h.09c4.61,.05,8.37,3.84,8.37,8.45-.05,4.66-3.88,8.45-8.53,8.45Zm.08-15.91c-1.96,0-3.81,.75-5.21,2.13-1.42,1.39-2.22,3.26-2.24,5.25-.04,4.11,3.27,7.49,7.38,7.53,4.11,0,7.49-3.35,7.53-7.46,0-4.06-3.31-7.41-7.38-7.45h-.08Z" fill="#002346"></path>
    <path d="M206.91,152.08c-5.57,0-11-1.9-15.29-5.36l-.25-.2,.08-.31c2.28-9.3,9.92-15,17.79-13.27,5.97,1.3,10.83,6.74,12.37,13.85l.07,.32-.26,.19c-4.21,3.12-9.23,4.77-14.51,4.77Zm-14.41-5.94c4.07,3.18,9.18,4.94,14.41,4.94,4.96,0,9.67-1.51,13.65-4.38-1.53-6.58-6.03-11.57-11.54-12.77h0c-7.24-1.6-14.29,3.65-16.53,12.22Z" fill="#002346"></path>
    <path d="M206.91,152.08c-5.57,0-11-1.9-15.29-5.36-5.85-4.66-9.21-11.64-9.21-19.14,0-13.51,10.99-24.5,24.5-24.5s24.5,10.99,24.5,24.5c0,7.76-3.73,15.14-9.99,19.73-4.21,3.12-9.23,4.77-14.51,4.77Zm0-48c-12.96,0-23.5,10.54-23.5,23.5,0,7.2,3.22,13.89,8.84,18.36,4.12,3.31,9.32,5.14,14.66,5.14s9.88-1.58,13.92-4.58c6-4.41,9.58-11.48,9.58-18.92,0-12.96-10.54-23.5-23.5-23.5Z" fill="#002346"></path>
  </g>
  <g>
    <path d="M133.76,177.08h0c-2.58-.03-4.66-2.15-4.64-4.73,.03-2.58,2.18-4.67,4.73-4.64,2.56,.03,4.64,2.13,4.64,4.69-.03,2.59-2.15,4.69-4.73,4.69Zm.04-8.37c-2.02,0-3.67,1.63-3.69,3.65-.02,2.03,1.62,3.7,3.65,3.72,2.03,0,3.71-1.66,3.72-3.69,0-2.01-1.64-3.66-3.65-3.68h-.04Z" fill="#002346"></path>
    <path d="M133.91,188.71c-2.98,0-5.89-1.02-8.19-2.87l-.25-.2,.08-.31c1.23-5.02,5.38-8.1,9.64-7.16,3.23,.71,5.86,3.64,6.69,7.47l.07,.32-.26,.19c-2.26,1.67-4.95,2.56-7.78,2.56Zm-7.31-3.45c2.08,1.58,4.67,2.45,7.31,2.45,2.5,0,4.89-.75,6.92-2.17-.82-3.3-3.09-5.79-5.85-6.39h0c-3.64-.8-7.19,1.81-8.38,6.11Z" fill="#002346"></path>
    <path d="M133.91,188.71c-2.98,0-5.89-1.02-8.19-2.87-3.14-2.5-4.94-6.24-4.94-10.26,0-7.24,5.89-13.13,13.13-13.13s13.13,5.89,13.13,13.13c0,4.16-2,8.11-5.35,10.57-2.26,1.67-4.95,2.56-7.78,2.56Zm0-25.26c-6.69,0-12.13,5.44-12.13,12.13,0,3.71,1.66,7.17,4.56,9.48,2.13,1.71,4.81,2.65,7.57,2.65s5.1-.82,7.18-2.36c3.1-2.28,4.95-5.93,4.95-9.77,0-6.69-5.44-12.13-12.13-12.13Z" fill="#002346"></path>
  </g>
  <g>
    <path d="M133.76,226.08h0c-2.58-.03-4.66-2.15-4.64-4.73,.03-2.58,2.18-4.69,4.73-4.64,2.56,.03,4.64,2.13,4.64,4.69-.03,2.59-2.15,4.69-4.73,4.69Zm.04-8.37c-2.02,0-3.67,1.63-3.69,3.65-.02,2.03,1.62,3.7,3.65,3.72,2.03,0,3.71-1.66,3.72-3.69,0-2.01-1.64-3.66-3.65-3.68h-.04Z" fill="#002346"></path>
    <path d="M133.91,237.71c-2.98,0-5.89-1.02-8.19-2.87l-.25-.2,.08-.31c1.23-5.02,5.38-8.1,9.64-7.16,3.23,.71,5.86,3.64,6.69,7.47l.07,.32-.26,.19c-2.26,1.67-4.95,2.56-7.78,2.56Zm-7.31-3.45c2.08,1.58,4.67,2.45,7.31,2.45,2.5,0,4.89-.75,6.92-2.17-.82-3.3-3.09-5.79-5.85-6.39h0c-3.64-.81-7.19,1.81-8.38,6.11Z" fill="#002346"></path>
    <path d="M133.91,237.71c-2.98,0-5.89-1.02-8.19-2.87-3.14-2.5-4.94-6.24-4.94-10.26,0-7.24,5.89-13.13,13.13-13.13s13.13,5.89,13.13,13.13c0,4.16-2,8.11-5.35,10.57-2.26,1.67-4.95,2.56-7.78,2.56Zm0-25.26c-6.69,0-12.13,5.44-12.13,12.13,0,3.71,1.66,7.17,4.56,9.48,2.13,1.71,4.81,2.65,7.57,2.65s5.1-.82,7.18-2.36c3.1-2.28,4.95-5.93,4.95-9.77,0-6.69-5.44-12.13-12.13-12.13Z" fill="#002346"></path>
  </g>
  <g>
    <path d="M309.41,116.58h-61.8c-.28,0-.5-.22-.5-.5s.22-.5,.5-.5h61.8c.28,0,.5,.22,.5,.5s-.22,.5-.5,.5Z" fill="#002346"></path>
    <path d="M309.41,128.08h-61.8c-.28,0-.5-.22-.5-.5s.22-.5,.5-.5h61.8c.28,0,.5,.22,.5,.5s-.22,.5-.5,.5Z" fill="#002346"></path>
    <path d="M309.41,139.58h-61.8c-.28,0-.5-.22-.5-.5s.22-.5,.5-.5h61.8c.28,0,.5,.22,.5,.5s-.22,.5-.5,.5Z" fill="#002346"></path>
  </g>
  <path d="M319.88,171.96h-116.8c-.28,0-.5-.22-.5-.5s.22-.5,.5-.5h116.8c.28,0,.5,.22,.5,.5s-.22,.5-.5,.5Z" fill="#002346"></path>
  <path d="M319.88,188.96h-116.8c-.28,0-.5-.22-.5-.5s.22-.5,.5-.5h116.8c.28,0,.5,.22,.5,.5s-.22,.5-.5,.5Z" fill="#002346"></path>
  <path d="M319.88,205.96h-116.8c-.28,0-.5-.22-.5-.5s.22-.5,.5-.5h116.8c.28,0,.5,.22,.5,.5s-.22,.5-.5,.5Z" fill="#002346"></path>
  <path d="M319.88,222.96h-116.8c-.28,0-.5-.22-.5-.5s.22-.5,.5-.5h116.8c.28,0,.5,.22,.5,.5s-.22,.5-.5,.5Z" fill="#002346"></path>
  <g>
    <g>
      <path d="M596.95,538.57s0,7.82,1.38,16.11c0,0,9.48-31.02,40.64-27.02l-6.12-13.48-5.06-5.06c-12.51,6.49-24.52,2.59-30.84,29.46Z" fill="#7cd295"></path>
      <path d="M598.19,556.86l-.35-2.1c-1.37-8.23-1.39-16.11-1.39-16.19v-.11c4.88-20.72,13.38-23.47,22.37-26.38,2.84-.92,5.78-1.87,8.73-3.4l.33-.17,5.42,5.47,6.49,14.3-.89-.11c-30.35-3.9-40,26.36-40.1,26.67l-.62,2.03Zm-.74-18.23c0,.67,.07,7.02,1.08,14.07,2.66-6.59,13.51-28.48,39.62-25.64l-5.72-12.59-4.74-4.74c-2.91,1.47-5.78,2.4-8.56,3.3-9.09,2.94-16.94,5.48-21.68,25.6Z" fill="#002346"></path>
    </g>
    <g>
      <path d="M685.23,517.31c-28.12,.03-32.32-41.41-3.91-75.9,.09-.11,.27-.04,.26,.11-1.12,11.76,33.4,53.9,10.78,73.19-1.99,1.69-4.51,2.6-7.12,2.6Z" fill="#7cd295"></path>
      <path d="M685.19,517.81c-9.32,0-16.61-4.58-20.54-12.89-7.79-16.49-1.1-42.73,16.27-63.83,.18-.22,.48-.3,.74-.19,.27,.11,.42,.38,.4,.66-.34,3.56,2.87,10.34,6.59,18.19,8.36,17.67,19.82,41.86,4.01,55.33-2.05,1.75-4.7,2.72-7.44,2.72h-.03Zm-4.14-75.3c-19.4,24.04-21.67,48.91-15.5,61.97,3.76,7.95,10.73,12.32,19.64,12.32h.03c2.51,0,4.92-.88,6.8-2.48,15.22-12.98,3.96-36.77-4.27-54.15-3.6-7.6-6.51-13.74-6.7-17.67Z" fill="#002346"></path>
    </g>
    <g>
      <path d="M683.53,501.83c-17.74-10.53-13.74-42.1,38.83-60.73,.1-.03,.2,.06,.16,.15-.6,1.71-4.08,12.88-5.91,44.4-.49,8.4-12.49,28.4-33.08,16.17Z" fill="#7cd295"></path>
      <path d="M696.03,506.17c-3.61,0-7.88-1.02-12.75-3.91-6.92-4.11-10.43-11.09-9.64-19.17,1.6-16.38,19.76-32.25,48.56-42.46,.23-.08,.48-.02,.65,.15,.17,.17,.23,.42,.15,.64-.66,1.91-4.07,13.02-5.88,44.26-.28,4.88-4.43,14.08-12.44,18.34-2.2,1.17-5.1,2.15-8.64,2.15Zm25.78-64.34c-28.01,10.08-45.63,25.51-47.18,41.36-.75,7.67,2.59,14.31,9.15,18.21,7.32,4.35,14.38,4.95,20.42,1.74,7.34-3.9,11.63-12.68,11.91-17.51,1.66-28.6,4.67-40.46,5.7-43.8Z" fill="#002346"></path>
    </g>
    <g>
      <path d="M701.89,571.02c.8,6.21-41.3,6.21-40.5,0-.8-6.21,41.3-6.21,40.5,0Z" fill="#002346"></path>
      <path d="M681.64,576.2c-8.13,0-16.26-.98-19.34-2.93-1.02-.65-1.5-1.41-1.42-2.25-.08-.84,.4-1.6,1.42-2.25,6.15-3.9,32.53-3.9,38.67,0,1.02,.65,1.5,1.41,1.42,2.25,.08,.84-.4,1.6-1.42,2.25-3.07,1.95-11.2,2.93-19.33,2.93Zm0-9.35c-7.95,0-15.9,.92-18.8,2.76-.69,.44-1.02,.89-.96,1.34v.06s0,.06,0,.06c-.06,.45,.26,.9,.96,1.34,5.8,3.68,31.8,3.69,37.59,0,.69-.44,1.02-.89,.96-1.34v-.06s0-.06,0-.06c.06-.45-.26-.9-.96-1.34-2.9-1.84-10.85-2.76-18.8-2.76Z" fill="#002346"></path>
    </g>
    <g>
      <path d="M703.55,626.02c-1.82-.27-48.18,.79-48.29-.86-9.13-4.33-9.52-18.47-9.52-18.47-1.38-18.87,15.65-28.99,15.65-28.99v-6.67c-.8,6.21,41.3,6.21,40.5,0v7.13c22.29,14.63,17.77,46.38,1.66,47.86Z" fill="#ffdd00"></path>
      <path d="M676.42,626.6c-16.11,0-20.39-.34-21.39-.99-9.29-4.42-9.78-18.31-9.8-18.9-1.29-17.69,13.55-27.93,15.65-29.28v-6.01c-.02-.15-.02-.3,0-.45l1,.06v.3c.06,.37,.38,.74,.95,1.11,5.8,3.68,31.8,3.68,37.59,0,.57-.36,.89-.73,.95-1.11v-.3l1-.06c.02,.15,.02,.31,0,.45v6.48c13.65,9.1,17.04,24.56,14.4,35.14-1.96,7.87-6.9,12.92-13.19,13.5h-.06s-.06,0-.06,0c-.5-.08-5.28-.04-10.81,0-6.43,.05-11.79,.08-16.24,.08Zm-20.68-1.69c2.37,.89,24.76,.71,36.91,.61,6.59-.05,10.17-.08,10.9,0,5.83-.56,10.41-5.32,12.26-12.74,2.57-10.3-.78-25.4-14.21-34.21l-.23-.15v-5.45c-.13,.1-.26,.2-.42,.29-6.14,3.9-32.52,3.91-38.67,0-.15-.1-.29-.19-.42-.3v5l-.24,.15c-.17,.1-16.75,10.2-15.41,28.53,0,.16,.5,13.91,9.24,18.06l.26,.13v.08Z" fill="#002346"></path>
    </g>
    <path d="M683.18,581.79c-12.38,0-21.83-3.57-21.97-3.63l.36-.93c.2,.08,20.32,7.67,40.15,.46l.34,.94c-6.49,2.36-13.01,3.16-18.88,3.16Z" fill="#002346"></path>
    <path d="M703.27,586.44c.05,3.58-5.58,3.58-5.52,0-.05-3.58,5.58-3.58,5.52,0Z" fill="#fff"></path>
    <path d="M711.55,594.72c.05,3.58-5.58,3.58-5.52,0-.05-3.58,5.58-3.58,5.52,0Z" fill="#fff"></path>
    <path d="M712.93,608.07c.05,3.58-5.58,3.58-5.52,0-.05-3.58,5.58-3.58,5.52,0Z" fill="#fff"></path>
    <path d="M705.57,618.19c.05,3.58-5.58,3.58-5.52,0-.05-3.58,5.58-3.58,5.52,0Z" fill="#fff"></path>
    <path d="M683.02,620.95c.05,3.58-5.58,3.58-5.52,0-.05-3.58,5.58-3.58,5.52,0Z" fill="#fff"></path>
    <path d="M665.53,618.19c.05,3.58-5.58,3.58-5.52,0-.05-3.58,5.58-3.58,5.52,0Z" fill="#fff"></path>
    <path d="M655.86,610.37c.05,3.58-5.58,3.58-5.52,0-.05-3.58,5.58-3.58,5.52,0Z" fill="#fff"></path>
    <path d="M657.24,594.72c.05,3.58-5.58,3.58-5.52,0-.05-3.58,5.58-3.58,5.52,0Z" fill="#fff"></path>
    <path d="M667.37,585.52c.05,3.58-5.58,3.58-5.52,0-.05-3.58,5.58-3.58,5.52,0Z" fill="#fff"></path>
    <path d="M676.57,593.8c.05,3.58-5.58,3.58-5.52,0-.05-3.58,5.58-3.58,5.52,0Z" fill="#fff"></path>
    <path d="M665.99,601.16c.05,3.58-5.58,3.58-5.52,0-.05-3.58,5.58-3.58,5.52,0Z" fill="#fff"></path>
    <path d="M675.19,610.37c.05,3.58-5.58,3.58-5.52,0-.05-3.58,5.58-3.58,5.52,0Z" fill="#fff"></path>
    <path d="M685.32,602.54c.05,3.58-5.58,3.58-5.52,0-.05-3.58,5.58-3.58,5.52,0Z" fill="#fff"></path>
    <path d="M687.16,586.9c.05,3.58-5.58,3.58-5.52,0-.05-3.58,5.58-3.58,5.52,0Z" fill="#fff"></path>
    <path d="M695.44,596.56c.05,3.58-5.58,3.58-5.52,0-.05-3.58,5.58-3.58,5.52,0Z" fill="#fff"></path>
    <path d="M701.89,603c.05,3.58-5.58,3.58-5.52,0-.05-3.58,5.58-3.58,5.52,0Z" fill="#fff"></path>
    <path d="M692.68,612.21c.05,3.58-5.58,3.58-5.52,0-.05-3.58,5.58-3.58,5.52,0Z" fill="#fff"></path>
    <path d="M686.24,570.37c-.27,0-.49-.22-.5-.49-1.19-51.21,8.26-83,16.4-100.64,8.85-19.18,17.85-26.11,18.23-26.4,.22-.17,.53-.12,.7,.1,.17,.22,.12,.53-.1,.7-.09,.07-9.23,7.12-17.97,26.11-8.07,17.54-17.45,49.16-16.26,100.11,0,.28-.21,.51-.49,.51h-.01Z" fill="#002346"></path>
    <g>
      <path d="M726.74,539.95c-15.18-12.36-36.76,4.61-15.19,25.77,0,0,11.05,10.12,15.65,20.71,0,0,21.17-15.19,21.63-35.9,0,0,0-21.17-22.09-10.59Z" fill="#7cd295"></path>
      <path d="M726.99,587.2l-.25-.57c-4.5-10.35-15.42-20.44-15.52-20.54-11.65-11.43-10.55-21.33-6.07-26.34,4.48-5.01,13.56-6.81,21.66-.39,7.1-3.35,12.71-3.78,16.67-1.28,5.78,3.64,5.85,12.1,5.85,12.46-.46,20.73-21.63,36.15-21.84,36.3l-.5,.36Zm-15.13-21.79c1.85,1.42,11.26,10.9,15.54,20.25,3.17-2.44,20.52-16.67,20.93-35.13,0-.07-.07-8.26-5.39-11.6-3.7-2.33-9.08-1.83-15.99,1.48l-.29,.14-.25-.2c-7.69-6.26-16.32-4.63-20.53,.08-4.19,4.68-5.12,14.02,6.01,24.95l-.04,.04Z" fill="#002346"></path>
    </g>
    <path d="M728.16,584.32l-.99-.16c4.37-26.48,1-47.12-9.02-55.2-4.05-3.26-8.88-4.03-13.61-2.16-8.93,3.54-15.84,15.59-18.04,31.46l-.99-.14c2.28-16.47,9.26-28.53,18.66-32.26,5.08-2.01,10.26-1.19,14.6,2.31,10.31,8.31,13.81,29.3,9.38,56.14Z" fill="#002346"></path>
    <g>
      <path d="M596.95,538.57c23.85-42.04,34.98,.01,70.88-5.98,.54-48.33-70.35-45.12-70.88,5.98Z" fill="#7cd295"></path>
      <path d="M596.43,540.5l.02-1.94c.16-15.82,7.35-28.89,19.7-35.85,11.63-6.55,26.08-6.68,36.8-.33,10.06,5.96,15.52,16.69,15.37,30.21v.42s-.42,.07-.42,.07c-14.57,2.43-24.88-2.85-33.98-7.5-13.06-6.68-22.5-11.51-36.54,13.24l-.96,1.68Zm38.81-41.79c-6.35,0-12.83,1.63-18.6,4.88-6.85,3.86-18.23,13.21-19.14,33.03,14-23.63,24.13-18.45,36.88-11.93,8.87,4.54,18.93,9.68,32.95,7.47,.03-12.95-5.24-23.21-14.88-28.92-5.11-3.03-11.1-4.54-17.2-4.54Z" fill="#002346"></path>
    </g>
    <path d="M675.69,569.89l-1-.04c1.29-31.63-13.06-47.58-21.74-54.28-11.35-8.76-25.61-11.7-38.14-7.86l-.29-.96c12.84-3.94,27.44-.94,39.05,8.02,8.83,6.81,23.44,23.03,22.13,55.11Z" fill="#002346"></path>
  </g>
  <g>
    <ellipse cx="462.74" cy="120.25" rx="19.5" ry="9.5" fill="#002346"></ellipse>
    <path d="M462.74,130.25c-11.21,0-20-4.39-20-10s8.79-10,20-10,20,4.39,20,10-8.79,10-20,10Zm0-19c-10.48,0-19,4.04-19,9s8.52,9,19,9,19-4.04,19-9-8.52-9-19-9Z" fill="#002346"></path>
  </g>
</svg>
